<svg width="279" height="116" viewBox="0 0 279 116" fill="none" xmlns="http://www.w3.org/2000/svg">
<path fill-rule="evenodd" clip-rule="evenodd" d="M249.952 0.747314L254.684 17.4717L174.5 54.9276L158.271 49.6227L249.952 0.747314Z" fill="#A86A37"/>
<path opacity="0.2" fill-rule="evenodd" clip-rule="evenodd" d="M278.571 102.931L159.184 51.1179L93.331 94.6885L0.549971 55.8518L0.114136 75.8255L93.2895 115.524V115.545L93.331 115.534L93.3414 115.545V115.534L257.765 110.042L278.571 102.931Z" fill="#7B2620"/>
<path fill-rule="evenodd" clip-rule="evenodd" d="M90.1971 5.7722L168.533 4.95207L250.076 0.384277L158.457 49.5608L0.404663 53.7444L74.0297 22.9118L90.1971 5.7722Z" fill="#A86A37"/>
<path fill-rule="evenodd" clip-rule="evenodd" d="M158.478 71.237L0.871692 73.6558L0.394348 53.7651L158.499 48.834L158.478 71.237Z" fill="#8E5326"/>
<path fill-rule="evenodd" clip-rule="evenodd" d="M256.78 107.541L158.115 67.8527V49.6853L257.755 87.9302L256.78 107.541Z" fill="#A46633"/>
<g opacity="0.2" style="mix-blend-mode:multiply">
<path fill-rule="evenodd" clip-rule="evenodd" d="M158.115 61.4578V67.8527L213.113 92.2489C213.875 91.4284 214.462 90.4603 214.836 89.4044C215.531 87.3281 215.303 77.4451 213.227 71.1747L198.388 65.029C188.8 64.0116 174.334 62.6309 158.115 61.4578Z" fill="#D18C27"/>
</g>
<g opacity="0.2" style="mix-blend-mode:multiply">
<path fill-rule="evenodd" clip-rule="evenodd" d="M158.488 56.1943C148.807 55.5403 138.699 54.9797 128.717 54.5956C114.5 53.2045 68.6648 53.0384 55.1435 52.7166L53.5454 52.9449C34.296 55.4676 28.9727 70.2299 29.6057 73.0225C29.7056 73.4335 29.8375 73.8362 30 74.2267L158.488 72.6072V56.1943Z" fill="#D18C27"/>
</g>
<path d="M202.321 68.7659C201.979 68.5167 161.435 63.8659 123.051 62.4125C84.7596 58.6648 41.8817 60.6062 41.5289 60.8449C38.0422 63.2015 39.1421 69.4303 39.7544 72.0983C41.0515 77.7562 49.2079 84.1511 65.8423 89.0926C80.4635 93.6812 100.325 97.0136 121.193 98.4358C142.062 99.8581 162.089 99.2767 177.032 96.6918C193.999 94.0445 203.639 89.5182 205.434 84.068C206.275 81.4519 206.503 71.8492 202.321 68.7659Z" fill="#E58848"/>
<path d="M92.2311 50.5364H92.8953C94.5452 50.443 95.614 50.4222 97.347 50.3599C99.08 50.2976 100.927 49.8305 102.67 49.7993H103.469C104.507 49.7993 105.493 49.6851 106.51 49.6436C106.956 49.6436 107.423 49.6436 107.89 49.6436C109.685 49.6436 111.844 50.225 113.649 50.2665C115.455 50.308 117.198 50.3703 119.014 50.443C120.83 50.5157 122.605 50.443 124.421 50.526C126.237 50.6091 128.084 50.6817 129.9 50.8271C131.716 50.9724 133.532 51.1074 135.337 51.2839C137.143 51.4604 138.793 51.7822 140.526 52.0002C142.259 52.2182 143.919 52.4985 145.652 52.7373C147.385 52.976 149.927 52.7373 151.619 53.0072C153.31 53.2771 154.732 53.7027 156.413 54.0453C158.094 54.3879 159.682 54.6786 161.249 55.0108C162.816 55.343 163.542 55.9451 165.036 56.2877C166.531 56.6303 168.959 56.7341 170.37 57.1078C171.781 57.4815 172.342 58.0629 173.66 58.4574C174.978 58.8519 177.105 59.101 178.319 59.4955C179.533 59.89 180.394 60.3987 181.515 60.8243C182.636 61.25 182.667 61.8106 183.674 62.2673C184.68 62.7241 187.43 62.9837 188.312 63.4404C189.194 63.8972 190.138 64.3748 190.906 64.8419C191.674 65.3091 190.678 65.8801 191.321 66.3368C191.965 66.7936 192.598 67.2815 193.106 67.7487C193.615 68.2159 194.58 68.7038 194.953 69.1709C195.213 69.6178 195.415 70.0957 195.555 70.5932C195.871 71.0395 196.136 71.5201 196.344 72.0258C196.53 72.478 196.655 72.9527 196.717 73.4377C196.717 73.9048 195.057 74.2474 194.891 74.7042C194.725 75.161 195.493 75.6801 195.182 76.1265C194.786 76.5878 194.352 77.0149 193.885 77.4034C193.438 77.829 193.366 78.3065 192.847 78.7218C192.328 79.1371 191.072 79.4381 190.377 79.8326C189.682 80.2271 190.512 80.8707 189.692 81.2548C188.872 81.639 186.807 81.7739 185.863 82.1165C184.919 82.4591 184.825 83.0197 183.788 83.3415C182.75 83.6633 179.824 83.518 178.599 83.819C177.375 84.1201 177.727 84.8572 176.462 85.0752C175.196 85.2932 174.106 85.6981 172.736 85.9368C172.303 86.0015 171.866 86.0396 171.429 86.051C170.515 86.051 169.447 86.051 168.523 86.1029C168.108 86.1029 167.714 86.1029 167.382 86.1964C165.929 86.3936 164.933 86.7881 163.397 86.9646C163.106 86.9646 162.785 86.9646 162.453 87.0269C161.29 87.0269 159.921 87.0269 158.748 87.0269H158.053C156.465 87.1618 155.676 87.7743 153.995 87.8678H153.829C152.179 87.9301 149.824 87.5356 148.153 87.5979C146.482 87.6601 145.33 88.1585 143.691 88.2207H143.494C141.73 88.2207 139.509 87.7951 137.724 87.7951H136.925C135.804 87.847 134.735 87.9716 133.625 88.0131C133.262 88.0131 132.899 88.0131 132.525 88.0131C130.699 88.0131 128.883 88.065 127.056 88.0131C125.23 87.9612 123.352 87.3902 121.536 87.276C119.72 87.1618 117.873 87.193 116.057 87.0476C114.241 86.9023 112.539 86.5805 110.744 86.404C108.949 86.2275 107.184 86.051 105.41 85.8434C103.636 85.6358 101.259 85.8434 99.5262 85.6462C97.7933 85.4489 96.5272 84.826 94.8358 84.5561C93.1443 84.2862 92.0962 83.7256 90.467 83.4246C88.8378 83.1235 86.2125 83.2377 84.6455 82.9055C83.0786 82.5733 82.2588 82.0023 80.7645 81.6493C79.2702 81.2964 77.9731 80.9123 76.5619 80.5385C75.1506 80.1648 74.3307 79.6873 73.0129 79.2928C71.695 78.8983 69.2875 78.7218 68.0631 78.3065C66.8386 77.8913 65.3443 77.5176 64.2235 77.0815C63.1028 76.6455 63.3415 76.0434 62.3349 75.6074C61.3283 75.1714 60.1661 74.7561 59.2841 74.2993C58.402 73.8426 57.2086 73.4273 56.42 72.9498C55.7795 72.5162 55.1629 72.0484 54.5729 71.5483C53.9295 71.0707 54.2305 70.5932 53.722 70.1156C53.2135 69.6381 50.7957 69.1813 50.4221 68.7142C50.0485 68.247 50.3391 67.7591 50.1004 67.2815C49.8617 66.804 50.6815 66.3784 50.5777 65.9112C50.4739 65.444 49.841 64.9457 49.8721 64.489C49.9032 64.0322 50.4117 63.5962 50.5777 63.1498C50.7438 62.7034 50.5777 62.2258 50.9202 61.7794C51.2626 61.333 52.373 61.0008 52.8192 60.5752C53.4049 60.143 54.0147 59.7444 54.6456 59.3813C55.2267 58.9765 55.0295 58.4678 55.7351 58.0837C56.4408 57.6996 57.9039 57.4504 58.7237 57.0455C59.5435 56.6407 59.2322 56.1008 60.1765 55.7582C61.1208 55.4156 62.2519 55.0938 63.2896 54.772C64.3273 54.4502 65.7697 54.2322 66.9319 53.9311C68.0942 53.6301 69.3809 53.3913 70.6469 53.1317C71.9129 52.8722 72.6704 52.4362 74.0402 52.1974C75.4099 51.9587 77.0392 51.8341 78.492 51.6265C78.907 51.6265 79.3844 51.5434 79.8928 51.5226C80.723 51.5226 81.6362 51.5226 82.4664 51.4604C82.8918 51.4604 83.2861 51.4603 83.6389 51.3773C85.1644 51.2112 86.1087 50.796 87.7275 50.661L88.8586 50.5883C89.8963 50.5883 91.1208 50.5883 92.2208 50.5157L92.2311 50.5364ZM94.8254 48.5224C85.8627 48.8067 76.9306 49.7156 68.0942 51.2424C60.6434 52.6127 54.687 54.3568 50.3909 56.5265C46.0948 58.6962 43.6874 61.0527 43.2204 63.6273C42.7535 66.2019 44.3723 69.036 48.0769 71.787C51.7815 74.5381 57.3436 77.1335 64.5971 79.5004C72.6593 82.0378 80.8918 83.9979 89.2322 85.3659C98.9898 87.0244 108.826 88.1782 118.703 88.8229C129.037 89.5278 139.4 89.6872 149.751 89.3004C158.715 89.027 167.647 88.1181 176.482 86.5805C183.933 85.2101 189.889 83.4661 194.185 81.2964C198.482 79.1267 200.899 76.7805 201.356 74.2059C201.813 71.6313 200.215 68.7972 196.5 66.0358C190.419 61.5199 184.68 59.807 179.979 58.3328C171.92 55.7966 163.691 53.8365 155.355 52.4673C145.593 50.8095 135.753 49.6556 125.873 49.0103C115.54 48.3072 105.176 48.1444 94.8254 48.5224Z" fill="#F78E48" stroke="#F78E48" stroke-width="0.52"/>
<path d="M149.741 89.3003C139.39 89.6871 129.026 89.5277 118.693 88.8228C108.816 88.1782 98.9794 87.0243 89.2217 85.3658C80.8813 83.9978 72.6489 82.0377 64.5867 79.5004C57.3227 77.1334 51.771 74.5381 48.0664 71.787C44.3618 69.0359 42.7223 66.2849 43.21 63.6272C43.6977 60.9696 46.0948 58.665 50.3805 56.5264C54.6662 54.3878 60.633 52.6126 68.0837 51.2423C76.9202 49.7155 85.8522 48.8067 94.815 48.5224C105.166 48.1443 115.529 48.3072 125.863 49.0103C135.743 49.6555 145.583 50.8094 155.344 52.4673C163.681 53.8364 171.91 55.7965 179.969 58.3328C187.233 60.6893 192.785 63.2847 196.489 66.0357C200.194 68.7868 201.833 71.5378 201.346 74.2059C200.858 76.8739 198.471 79.1578 194.175 81.2963C189.879 83.4349 183.923 85.2101 176.472 86.5804C167.637 88.118 158.704 89.027 149.741 89.3003ZM93.7669 47.7749C51.221 49.4255 29.4293 60.2325 45.2335 71.9323C61.0378 83.6321 108.232 91.7607 150.789 90.1101C193.345 88.4595 215.126 77.6525 199.332 65.9631C183.539 54.2736 136.323 46.1243 93.7669 47.7749Z" fill="#E58848"/>
<path d="M98.8206 50.9102C98.613 50.9102 98.1461 51.0244 97.7829 51.0867C96.7044 51.3083 95.6125 51.4574 94.5141 51.5331H93.5698C92.8745 51.5331 92.1897 51.5331 91.5878 51.5331C90.9859 51.5331 90.6123 51.5331 90.2076 51.5331H89.6265C89.3671 51.5331 88.8794 51.668 88.4851 51.7511C87.6004 51.9682 86.7026 52.1277 85.7974 52.2286C85.2267 52.2909 84.5729 52.3428 83.8258 52.3636C83.2654 52.3636 82.7258 52.3636 82.2485 52.3636H81.2108H80.8683C80.173 52.4674 79.4882 52.5401 78.7929 52.6231C78.0976 52.7062 77.2156 52.7996 76.6241 52.9034C76.2165 52.9895 75.8145 53.1005 75.4204 53.2356C74.7747 53.4583 74.1164 53.642 73.4488 53.7858L72.6808 53.9416C71.7054 54.1492 70.7715 54.336 69.9413 54.5437C69.3498 54.689 68.7583 54.8136 68.1772 54.9382C67.5961 55.0627 66.9112 55.1977 66.4754 55.3327L66.0914 55.4469C65.1782 55.7168 64.317 55.9763 63.5698 56.2566C63.4599 56.3426 63.3711 56.4527 63.3104 56.5784C63.0845 56.9971 62.7165 57.3211 62.2727 57.492C61.6876 57.7373 61.0838 57.9351 60.4671 58.0837C60.1124 58.1693 59.7653 58.2838 59.4294 58.4263C59.2716 58.5359 59.1519 58.6919 59.0869 58.8727C58.9463 59.191 58.7244 59.4667 58.4436 59.6721C58.1738 59.8589 57.8728 60.0354 57.5822 60.2015C57.2663 60.3694 56.9674 60.5676 56.6898 60.7933C56.3479 61.0807 55.9671 61.3183 55.5587 61.4992C55.3051 61.6017 55.0702 61.7456 54.8635 61.9248C54.7459 62.1226 54.6849 62.3488 54.6871 62.5789C54.6738 62.7979 54.632 63.0143 54.5626 63.2225C54.4621 63.4436 54.3368 63.6526 54.189 63.8454C54.0354 64.0295 53.9254 64.246 53.8673 64.4786C53.9077 64.6928 54.0085 64.8909 54.1578 65.0496C54.3459 65.2794 54.487 65.544 54.5729 65.8282C54.5848 65.9873 54.5632 66.147 54.5096 66.2972C54.456 66.4474 54.3715 66.5847 54.2616 66.7003C54.1371 66.856 54.0125 67.0325 54.0644 67.1259C54.1688 67.3645 54.2184 67.6234 54.2097 67.8837C54.1933 68.0644 54.2219 68.2462 54.2927 68.4132L54.9776 68.6416C55.9011 68.8765 56.7783 69.2661 57.5719 69.7939C57.8225 70.0314 57.9961 70.3389 58.07 70.6763C58.0967 70.8561 58.1847 71.0211 58.319 71.1435C58.5785 71.3407 58.8067 71.5276 59.0247 71.7144C59.3533 71.9931 59.7 72.2497 60.0624 72.4827C60.4776 72.7145 60.9074 72.9191 61.3491 73.0952C61.8265 73.3028 62.3246 73.5104 62.7915 73.7492C63.2585 73.988 63.7566 74.1852 64.3481 74.424C64.7839 74.6005 65.2509 74.7873 65.6867 74.9846C66.2528 75.1986 66.7535 75.5564 67.1395 76.0227C67.2269 76.1477 67.3317 76.2596 67.4508 76.3549C67.897 76.521 68.4885 76.7079 69.2045 76.9155C69.9205 77.1231 70.3875 77.2685 70.979 77.4657L72.079 77.6526C73.3288 77.8207 74.5663 78.0704 75.7836 78.4C76.6138 78.6492 77.2467 78.9087 77.8071 79.1267C78.3674 79.3447 78.7099 79.4797 79.1042 79.5835L80.474 79.9572C81.3664 80.2064 82.2069 80.4348 83.0682 80.6424C83.9933 80.8588 84.8991 81.1504 85.7767 81.5144C86.005 81.5975 86.3163 81.7221 86.5446 81.7947L87.4681 81.8466C89.0709 81.8944 90.669 82.047 92.2519 82.3034C93.307 82.497 94.3472 82.7641 95.3651 83.1028C95.6867 83.1962 96.1641 83.3519 96.4028 83.3935C97.5312 83.5811 98.647 83.8376 99.7441 84.1617L100.637 84.4108H101.57C103.181 84.3737 104.793 84.4396 106.396 84.6081C108.025 84.795 109.633 84.9611 111.418 85.1375C112.508 85.2413 113.494 85.3763 114.355 85.5009C115.216 85.6255 115.87 85.7085 116.43 85.75C116.991 85.7916 117.8 85.8227 118.63 85.8435C119.461 85.8642 120.519 85.8435 121.609 85.9577C123.04 86.0566 124.464 86.2404 125.873 86.5079L126.911 86.6844C127.513 86.6844 128.26 86.6844 129.049 86.6844C129.838 86.6844 130.896 86.6844 131.944 86.6844H132.162L133.355 86.6117C133.968 86.5598 134.673 86.5079 135.431 86.4767C135.908 86.4767 136.365 86.4767 136.811 86.4767C138.303 86.4933 139.792 86.5938 141.273 86.7778L142.311 86.8816L143.079 87.0373C144.294 86.7712 145.53 86.6148 146.773 86.5702C148.342 86.5313 149.912 86.5903 151.474 86.7466L152.335 86.8193L152.864 86.6532C153.927 86.3235 155.024 86.1112 156.133 86.02C156.517 86.02 156.922 85.9577 157.378 85.9473C158.24 85.9473 159.059 85.9473 159.796 85.9473H161.218C161.672 85.8804 162.122 85.7904 162.567 85.6774C163.354 85.4801 164.15 85.3241 164.953 85.2102C165.576 85.1272 166.292 85.0649 167.153 85.0337C167.807 85.0337 168.43 85.0337 168.99 85.0337H170.028H170.132C170.671 84.9403 171.169 84.7949 171.802 84.6496C172.435 84.5043 172.84 84.3901 173.38 84.2655C173.477 84.1911 173.567 84.1077 173.649 84.0163C174.122 83.467 174.772 83.0999 175.486 82.9782C176.854 82.7073 178.243 82.5614 179.637 82.5422H180.509C180.657 82.4528 180.796 82.3484 180.924 82.2308C181.329 81.8768 181.797 81.6021 182.304 81.421C183.161 81.153 184.04 80.9551 184.929 80.8293C185.251 80.8293 185.728 80.6943 185.967 80.6424C185.988 80.5467 185.988 80.4474 185.967 80.3517C185.92 80.1281 185.955 79.8951 186.066 79.6951C186.176 79.4951 186.355 79.3413 186.569 79.2617C187.007 79.0328 187.462 78.8351 187.928 78.67C188.287 78.5496 188.635 78.3967 188.966 78.2132C189.167 78.0489 189.336 77.8481 189.464 77.6214C189.605 77.3829 189.776 77.1632 189.972 76.9674L190.408 76.5625C190.702 76.3283 190.967 76.06 191.197 75.7632C191.259 75.6801 191.197 75.4933 191.062 75.3272C190.964 75.199 190.895 75.0506 190.861 74.8926C190.827 74.7346 190.828 74.571 190.865 74.4136C191.021 74.0191 191.654 73.718 192.162 73.4897C192.34 73.4136 192.511 73.3197 192.67 73.2094C192.66 72.9479 192.6 72.6908 192.494 72.4515C192.418 72.2669 192.359 72.0758 192.318 71.8805C192.224 71.6081 192.087 71.3523 191.913 71.1227C191.782 70.9352 191.661 70.7411 191.55 70.5413C191.462 70.3464 191.389 70.1451 191.332 69.9392C191.269 69.6715 191.156 69.418 191 69.1918C190.765 68.9636 190.504 68.7648 190.221 68.6C189.858 68.3761 189.511 68.1263 189.184 67.8526C188.716 67.4328 188.224 67.041 187.71 66.6795L187.492 66.5238C187.288 66.4169 187.131 66.2365 187.054 66.0188C186.977 65.8012 186.985 65.5625 187.077 65.3507C187.091 65.2543 187.091 65.1564 187.077 65.06C186.455 64.6863 185.687 64.2814 184.94 63.8973L184.825 63.8454L183.892 63.6481C182.634 63.4468 181.4 63.1198 180.208 62.6723C179.662 62.4328 179.16 62.1028 178.724 61.6964C178.575 61.543 178.403 61.4134 178.215 61.3123C177.655 61.0839 177.178 60.8763 176.711 60.6583C176.244 60.4403 175.673 60.2119 175.227 60.0458C175.05 59.9939 174.345 59.8485 173.878 59.7655C172.954 59.5786 171.802 59.3606 170.765 59.0596C169.993 58.8288 169.246 58.5228 168.534 58.146C168.295 58.0318 167.942 57.8553 167.745 57.7827L166.562 57.6373C165.234 57.5025 163.914 57.2946 162.608 57.0144C161.662 56.7904 160.738 56.4812 159.848 56.0905C159.588 55.9867 159.215 55.831 159.028 55.7791C157.233 55.4053 155.801 55.1147 154.504 54.8759C153.539 54.6994 152.677 54.5022 151.92 54.3257C151.328 54.1907 150.768 54.0661 150.28 53.9727H149.305C147.633 54.0032 145.962 53.913 144.303 53.7028L142.145 53.3913C141.2 53.246 140.308 53.1111 139.457 53.0072C138.606 52.9034 137.548 52.7477 136.738 52.6231C135.929 52.4986 135.161 52.3844 134.528 52.3221C133.106 52.1871 131.633 52.0729 130.076 51.9483L129.391 51.8861C128.561 51.8238 127.617 51.7822 126.631 51.7407L124.224 51.6161C123.725 51.6161 123.02 51.6161 122.273 51.6161C121.349 51.6161 120.301 51.6161 119.16 51.6161C117.229 51.5331 115.663 51.4916 114.096 51.45C112.499 51.3987 110.908 51.2391 109.333 50.9725L108.367 50.8271H107.828L106.52 50.8894L104.787 50.9725H103.75H102.504C101.207 50.9725 99.9621 50.9725 98.7999 51.0555L98.8206 50.9102Z" fill="url(#paint0_linear_228_15272)"/>
<path d="M80.0277 62.4441C79.3915 62.5282 78.7444 62.4459 78.1494 62.2054C77.8692 62.0081 78.2532 61.8005 79.0107 61.7382C79.6435 61.6601 80.2858 61.7422 80.8786 61.977C81.1588 62.1742 80.7748 62.3818 80.0277 62.4441ZM73.5524 60.7727C72.7927 60.8676 72.0214 60.7675 71.311 60.482C70.9685 60.2433 71.4251 59.9941 72.3487 59.9215C73.1084 59.8214 73.881 59.9216 74.5901 60.2121C74.9325 60.4405 74.4656 60.6897 73.5524 60.7727ZM73.7392 58.6342C69.5261 58.9871 66.4026 58.1151 65.4375 59.1325C65.3545 59.2051 65.2715 59.1325 65.2404 59.3193C64.9394 60.617 65.2404 62.2261 66.0913 62.7971C68.6129 64.5412 76.1259 65.5066 82.8813 64.946C88.5887 64.4789 91.9197 63.0774 91.2971 61.6032C91.1829 61.3333 91.4424 60.7104 91.0481 60.4405C88.5264 58.6965 80.5154 58.084 73.7599 58.6342H73.7392Z" fill="#952500"/>
<path d="M93.6216 51.5745H94.5659C95.6642 51.4988 96.7563 51.3497 97.8347 51.1281C98.146 51.0658 98.613 50.9724 98.8724 50.9516C100.035 50.9516 101.28 50.8893 102.577 50.8686H103.822H104.86L106.593 50.7855L107.9 50.7232H108.44L109.405 50.8686C110.98 51.1352 112.571 51.2948 114.168 51.3461C115.735 51.3461 117.281 51.4292 119.232 51.5122C120.415 51.5641 121.463 51.5122 122.345 51.5122C123.092 51.5122 123.798 51.5122 124.296 51.5122L126.704 51.6368C127.741 51.6368 128.634 51.7198 129.464 51.7821L130.149 51.8444C131.705 51.969 133.179 52.0832 134.601 52.2181C135.234 52.2804 136.001 52.3946 136.811 52.5192C137.62 52.6438 138.533 52.7787 139.53 52.9033C140.526 53.0279 141.273 53.1421 142.217 53.2874L144.376 53.5988C146.034 53.8091 147.706 53.8993 149.377 53.8688H150.353C150.841 53.9622 151.391 54.0868 151.992 54.2217C152.75 54.3982 153.611 54.5955 154.576 54.7719C155.873 55.0107 157.305 55.3014 159.101 55.6751C159.287 55.727 159.661 55.8828 159.92 55.9866C160.811 56.3773 161.735 56.6865 162.681 56.9105C163.986 57.1907 165.306 57.3986 166.634 57.5334L167.817 57.6787C168.015 57.7514 168.367 57.9279 168.606 58.0421C169.318 58.4189 170.065 58.7249 170.837 58.9556C171.875 59.2567 173.016 59.4747 173.95 59.6616C174.417 59.7446 175.123 59.89 175.299 59.9419C175.787 60.108 176.275 60.326 176.783 60.5544C177.292 60.7828 177.727 60.98 178.288 61.2084C178.476 61.3095 178.648 61.4391 178.796 61.5925C179.233 61.9989 179.734 62.3288 180.28 62.5683C181.472 63.0159 182.707 63.3428 183.964 63.5442L184.898 63.7414L185.012 63.7933C185.759 64.1775 186.527 64.5823 187.15 64.9561C187.163 65.0525 187.163 65.1503 187.15 65.2467C187.058 65.4586 187.05 65.6973 187.127 65.9149C187.204 66.1326 187.36 66.313 187.565 66.4198L187.783 66.5755C188.297 66.9371 188.789 67.3288 189.256 67.7486C189.584 68.0224 189.931 68.2722 190.294 68.4961C190.577 68.6609 190.838 68.8596 191.072 69.0878C191.229 69.3141 191.341 69.5676 191.404 69.8353C191.462 70.0412 191.535 70.2424 191.622 70.4374C191.734 70.6372 191.855 70.8312 191.986 71.0188C192.16 71.2483 192.296 71.5041 192.39 71.7766C192.432 71.9719 192.491 72.163 192.567 72.3476C192.673 72.5868 192.732 72.844 192.743 73.1054C192.583 73.2157 192.413 73.3096 192.235 73.3857C191.726 73.6141 191.093 73.9152 190.937 74.3097C190.901 74.467 190.899 74.6307 190.933 74.7887C190.967 74.9467 191.036 75.0951 191.135 75.2232C191.228 75.3893 191.332 75.5762 191.27 75.6592C191.039 75.9561 190.774 76.2244 190.481 76.4586L190.045 76.8635C189.849 77.0593 189.678 77.279 189.537 77.5175C189.409 77.7442 189.24 77.9449 189.038 78.1092C188.707 78.2927 188.36 78.4456 188.001 78.566C187.534 78.7311 187.08 78.9289 186.641 79.1578C186.427 79.2374 186.249 79.3912 186.138 79.5911C186.028 79.7911 185.993 80.0241 186.039 80.2478C186.061 80.3435 186.061 80.4428 186.039 80.5385C185.842 80.5385 185.365 80.6734 185.002 80.7253C184.112 80.8512 183.234 81.0491 182.376 81.3171C181.87 81.4982 181.402 81.7728 180.996 82.1268C180.869 82.2445 180.73 82.3488 180.581 82.4383H179.709C178.316 82.4574 176.926 82.6034 175.559 82.8743C174.844 82.9959 174.195 83.3631 173.722 83.9124C173.64 84.0037 173.55 84.0871 173.452 84.1616C172.881 84.2861 172.414 84.4211 171.875 84.5457C171.335 84.6703 170.744 84.8364 170.204 84.9298H170.059H169.021C168.461 84.9298 167.838 84.9298 167.184 84.9298C166.323 84.9298 165.607 85.0232 164.984 85.1063C164.181 85.2202 163.385 85.3761 162.598 85.5734C162.153 85.6864 161.703 85.7765 161.249 85.8434H159.827C159.09 85.8434 158.271 85.8434 157.409 85.8434C156.953 85.8434 156.548 85.8433 156.164 85.916C155.055 86.0072 153.958 86.2196 152.895 86.5493L152.366 86.7154L151.505 86.6427C149.943 86.4863 148.373 86.4274 146.804 86.4662C145.547 86.5431 144.3 86.7342 143.079 87.0372L142.373 87.1618L141.335 87.058C139.855 86.874 138.365 86.7735 136.873 86.7569C136.427 86.7569 135.97 86.7569 135.493 86.7569C134.704 86.7569 133.999 86.84 133.418 86.8919L132.224 86.9645H132.006C130.969 86.9645 129.931 86.9645 129.111 86.9645C128.291 86.9645 127.575 86.9645 126.973 86.9645L125.936 86.7881C124.526 86.5205 123.102 86.3368 121.671 86.2378C120.581 86.1756 119.595 86.1444 118.693 86.1236C117.79 86.1029 117.084 86.1236 116.493 86.0302C115.901 85.9368 115.185 85.8849 114.417 85.7811C113.649 85.6772 112.57 85.5215 111.48 85.4177C109.696 85.2412 108.087 85.0751 106.458 84.8883C104.855 84.7197 103.244 84.6539 101.633 84.691H100.709L99.8167 84.4419C98.7196 84.1178 97.6038 83.8612 96.4753 83.6736C96.2678 83.6736 95.7904 83.4764 95.4376 83.383C94.4198 83.0443 93.3796 82.7772 92.3245 82.5836C90.7416 82.3272 89.1435 82.1746 87.5406 82.1268L86.6171 82.0749C86.3888 82.0023 86.0775 81.8777 85.8492 81.7946C84.9716 81.4306 84.0658 81.139 83.1408 80.9226C82.2795 80.715 81.439 80.4866 80.5465 80.2374L79.1768 79.8637C78.7824 79.7599 78.3466 79.5834 77.8796 79.4069C77.4127 79.2304 76.6863 78.9294 75.8561 78.6802C74.6388 78.3506 73.4014 78.1009 72.1516 77.9328L71.0516 77.7459C70.4601 77.5487 69.8582 77.3722 69.2771 77.1957C68.696 77.0192 67.9696 76.8012 67.5234 76.6351C67.4043 76.5398 67.2995 76.4279 67.2121 76.3029C66.8261 75.8366 66.3254 75.4788 65.7593 75.2648C65.3234 75.0675 64.8565 74.8806 64.4206 74.7042C63.8292 74.4654 63.2792 74.2474 62.8641 74.0294C62.449 73.8114 61.899 73.583 61.4217 73.3753C60.9799 73.1993 60.5501 72.9947 60.1349 72.7628C59.7725 72.5299 59.4259 72.2732 59.0972 71.9946C58.8793 71.8078 58.651 71.6209 58.3916 71.4237C58.2573 71.3013 58.1693 71.1362 58.1426 70.9565C58.0687 70.619 57.8951 70.3116 57.6444 70.0741C56.8508 69.5463 55.9737 69.1567 55.0502 68.9217L54.3653 68.6934C54.2944 68.5264 54.2659 68.3445 54.2823 68.1639C54.291 67.9036 54.2414 67.6446 54.137 67.4061C54.137 67.3126 54.2096 67.1361 54.3341 66.9804C54.444 66.8649 54.5285 66.7276 54.5821 66.5774C54.6357 66.4272 54.6574 66.2674 54.6455 66.1084C54.5595 65.8241 54.4185 65.5596 54.2304 65.3298C54.0811 65.1711 53.9802 64.973 53.9398 64.7588C53.9979 64.5261 54.1079 64.3096 54.2615 64.1255C54.4093 63.9328 54.5346 63.7238 54.6351 63.5027C54.7045 63.2945 54.7464 63.0781 54.7596 62.859C54.7575 62.629 54.8185 62.4027 54.936 62.205C55.1427 62.0257 55.3776 61.8819 55.6313 61.7794C56.0396 61.5985 56.4205 61.3609 56.7624 61.0734C57.04 60.8477 57.3389 60.6495 57.6548 60.4817C57.9454 60.3156 58.2463 60.1391 58.5161 59.9523C58.797 59.7469 59.0189 59.4712 59.1595 59.1529C59.2245 58.9721 59.3442 58.8161 59.5019 58.7065C59.8379 58.564 60.1849 58.4494 60.5396 58.3639C61.1564 58.2153 61.7602 58.0174 62.3452 57.7722C62.789 57.6013 63.1571 57.2772 63.3829 56.8586C63.4437 56.7329 63.5325 56.6228 63.6424 56.5368C64.3895 56.2565 65.2508 55.9969 66.164 55.727L66.5479 55.6128C66.9838 55.4779 67.5856 55.3533 68.2498 55.2184C68.9139 55.0834 69.4224 54.9692 70.0139 54.8239C70.844 54.6162 71.7779 54.4294 72.7534 54.2217L73.5213 54.066C74.1889 53.9222 74.8473 53.7385 75.4929 53.5158C75.887 53.3807 76.2891 53.2697 76.6967 53.1836C77.2882 53.0798 78.0561 52.9967 78.8655 52.9033C79.6749 52.8099 80.2145 52.7476 80.9409 52.6438H81.2833H82.321C82.7984 52.6438 83.3587 52.6438 83.8983 52.6438C84.6454 52.6438 85.2992 52.5711 85.87 52.5088C86.7752 52.4079 87.673 52.2484 88.5576 52.0313C88.952 51.9482 89.4397 51.834 89.6991 51.8133H90.2802C90.6849 51.8133 91.1623 51.8133 91.6604 51.8133C92.1585 51.8133 92.9471 51.8133 93.6423 51.8133L93.6216 51.5745ZM97.4196 49.8719C95.6866 49.9342 94.5763 50.4014 92.9263 50.4948H92.2622C91.1623 50.4948 89.9896 50.4948 88.9 50.5675L87.769 50.6402C86.1502 50.7751 85.2058 51.1904 83.6804 51.3565C83.3276 51.3565 82.9333 51.4188 82.5078 51.4395C81.6776 51.4395 80.7645 51.4395 79.9343 51.5018C79.4259 51.5018 78.8966 51.5537 78.5334 51.6056C77.0806 51.8133 75.4203 51.9482 74.0817 52.1766C72.743 52.405 71.9544 52.841 70.6884 53.1109C69.4224 53.3809 68.146 53.6196 66.9734 53.9103C65.8008 54.201 64.3792 54.4294 63.3311 54.7512C62.283 55.073 61.1934 55.3845 60.218 55.7374C59.2425 56.0904 59.5953 56.6614 58.7652 57.0247C57.935 57.388 56.4822 57.6372 55.7766 58.0628C55.0709 58.4885 55.2681 58.9556 54.687 59.3605C54.0561 59.7236 53.4463 60.1222 52.8606 60.5544C52.4144 60.98 51.2729 61.3226 50.9616 61.7586C50.6503 62.1946 50.7956 62.6722 50.6192 63.1289C50.4428 63.5857 49.955 64.001 49.9135 64.4681C49.872 64.9353 50.5258 65.4128 50.6192 65.8904C50.7126 66.3679 49.9032 66.7832 50.1418 67.2607C50.3805 67.7383 50.1418 68.2158 50.4635 68.6934C50.7852 69.1709 53.2653 69.6173 53.7634 70.0948C54.2615 70.5724 53.971 71.0499 54.6143 71.5275C55.2043 72.0276 55.821 72.4954 56.4615 72.9289C57.2294 73.4065 58.4538 73.8217 59.3255 74.2785C60.1972 74.7353 61.4009 75.1506 62.3763 75.5866C63.3518 76.0226 63.165 76.6247 64.265 77.0607C65.3649 77.4967 66.8904 77.8705 68.1045 78.2857C69.3186 78.701 71.7365 78.8775 73.0543 79.272C74.3722 79.6664 75.2024 80.144 76.6033 80.5177C78.0042 80.8914 79.322 81.2755 80.806 81.6285C82.2899 81.9815 83.12 82.5628 84.687 82.8847C86.2539 83.2065 88.8378 83.1027 90.5085 83.4037C92.1792 83.7048 93.1961 84.2654 94.8772 84.5353C96.5583 84.8052 97.8243 85.3866 99.5677 85.6253C101.311 85.8641 103.718 85.6253 105.451 85.8226C107.184 86.0198 108.969 86.2067 110.785 86.3832C112.601 86.5597 114.272 86.8815 116.098 87.0268C117.925 87.1722 119.741 87.141 121.577 87.2552C123.414 87.3694 125.272 87.9092 127.098 87.9923C128.924 88.0753 130.74 87.9923 132.567 87.9923C132.94 87.9923 133.303 87.9923 133.667 87.9923C134.777 87.9923 135.846 87.8262 136.966 87.7743H137.766C139.55 87.7743 141.771 88.2311 143.535 88.1999H143.732C145.372 88.1376 146.524 87.6497 148.194 87.577C149.865 87.5044 152.221 87.9092 153.871 87.847H154.037C155.718 87.7535 156.506 87.141 158.094 87.0061H158.789C159.962 87.0061 161.332 87.0061 162.494 87.0061C162.826 87.0061 163.148 87.0061 163.438 86.9438C164.974 86.7673 165.97 86.3728 167.423 86.1756C167.755 86.1236 168.149 86.1029 168.565 86.0821C169.488 86.0821 170.557 86.0821 171.47 86.0302C171.908 86.0188 172.344 85.9806 172.778 85.916C174.147 85.6772 175.237 85.3243 176.503 85.0544C177.769 84.7845 177.478 84.0889 178.641 83.7982C179.803 83.5076 182.719 83.6425 183.829 83.3207C184.94 82.9989 184.96 82.4383 185.905 82.0957C186.849 81.7531 188.904 81.6078 189.734 81.234C190.564 80.8603 189.734 80.1959 190.419 79.8118C191.103 79.4277 192.318 79.1059 192.888 78.701C193.459 78.2961 193.532 77.8082 193.926 77.3825C194.393 76.9941 194.827 76.5669 195.223 76.1056C195.534 75.6592 194.756 75.1402 194.933 74.6834C195.109 74.2266 196.717 73.884 196.759 73.4169C196.697 72.9319 196.571 72.4572 196.385 72.005C196.177 71.4993 195.913 71.0187 195.597 70.5724C195.457 70.0749 195.254 69.597 194.995 69.1501C194.621 68.683 193.656 68.2054 193.148 67.7279C192.639 67.2503 192.006 66.7936 191.363 66.316C190.72 65.8385 191.695 65.2779 190.948 64.8211C190.201 64.3643 189.236 63.8764 188.354 63.4196C187.471 62.9628 184.711 62.6825 183.715 62.2465C182.719 61.8105 182.677 61.2084 181.557 60.8035C180.436 60.3986 179.575 59.89 178.36 59.4747C177.146 59.0594 175.009 58.8103 173.701 58.4366C172.394 58.0628 171.813 57.4711 170.412 57.087C169.011 56.7029 166.562 56.6198 165.078 56.2669C163.594 55.9139 162.847 55.3118 161.29 54.99C159.734 54.6681 158.084 54.3255 156.455 54.0245C154.825 53.7234 153.341 53.2978 151.66 52.9864C149.979 52.6749 147.437 52.9864 145.694 52.7164C143.95 52.4465 142.342 52.187 140.567 51.9794C138.793 51.7717 137.143 51.4395 135.379 51.263C133.615 51.0866 131.768 50.9516 129.941 50.8063C128.115 50.6609 126.299 50.6194 124.462 50.5052C122.625 50.391 120.892 50.5052 119.056 50.4222C117.219 50.3391 115.517 50.2872 113.691 50.2457C111.864 50.2041 109.727 49.6228 107.932 49.6228C107.465 49.6228 106.998 49.6228 106.551 49.6228C105.514 49.6228 104.476 49.737 103.511 49.7785H102.712C100.969 49.7785 99.1526 49.7785 97.43 49.8927L97.4196 49.8719Z" fill="#E58848"/>
<path d="M73.6562 56.8276C66.9111 57.0975 63.4659 58.8104 65.9564 60.6583C68.4469 62.5062 75.9495 63.7727 82.6946 63.5443C89.4397 63.3159 92.8848 61.5718 90.3943 59.7136C87.9038 57.8553 80.4012 56.5992 73.6562 56.8276Z" fill="#B12600"/>
<path d="M72.2346 58.0527C71.3318 58.0527 70.8648 58.3225 71.1969 58.5715C71.8997 58.8865 72.6708 59.0186 73.4383 58.9555C74.3411 58.9555 74.8081 58.696 74.476 58.447C73.7703 58.1289 72.996 57.9933 72.2242 58.0527H72.2346Z" fill="#F4BDC6"/>
<path d="M78.9277 60.1705C78.1806 60.1705 77.7966 60.3885 78.0768 60.596C78.6614 60.862 79.3047 60.9728 79.9447 60.9177C80.6918 60.9177 81.0862 60.6998 80.806 60.4922C80.2175 60.2267 79.571 60.116 78.9277 60.1705Z" fill="#F4BDC6"/>
<path d="M86.4823 61.229C85.9946 61.229 85.7455 61.3639 85.9219 61.4988C86.3027 61.6696 86.7196 61.7445 87.136 61.7168C87.6238 61.7168 87.8832 61.5715 87.6964 61.4366C87.316 61.2651 86.8981 61.1937 86.4823 61.229Z" fill="#E2A4AC"/>
<path d="M72.826 60.6579C71.7883 60.6579 71.2384 60.9693 71.6223 61.2598C72.4459 61.6278 73.3482 61.7848 74.2477 61.7164C75.2854 61.7164 75.8354 61.4051 75.4515 61.1145C74.6279 60.7465 73.7255 60.5896 72.826 60.6579Z" fill="#F4BDC6"/>
<path d="M87.2708 66.9387C86.15 66.9387 85.5793 67.2604 85.9944 67.5717C86.8635 67.9602 87.8161 68.1243 88.7651 68.049C89.8754 68.049 90.4462 67.717 90.0311 67.416C89.1669 67.0236 88.2165 66.8592 87.2708 66.9387Z" fill="#E23D1C"/>
<path d="M106.759 72.6798C105.545 72.6798 104.933 73.0326 105.368 73.3647C106.309 73.786 107.34 73.9644 108.367 73.8835C109.581 73.8317 110.194 73.5307 109.748 73.1987C108.813 72.7711 107.783 72.5924 106.759 72.6798Z" fill="#E23D1C"/>
<path d="M121.339 71.4652C120.228 71.4652 119.658 71.7869 120.073 72.0878C120.933 72.4807 121.88 72.6451 122.823 72.5651C123.933 72.5651 124.504 72.2435 124.089 71.9321C123.226 71.5485 122.28 71.3879 121.339 71.4652Z" fill="#E23D1C"/>
<path d="M134.891 72.5031C133.791 72.5031 133.22 72.8248 133.625 73.1361C134.49 73.5246 135.441 73.6853 136.385 73.6031C137.485 73.6031 138.056 73.2814 137.641 72.9805C136.78 72.5915 135.833 72.4273 134.891 72.5031Z" fill="#E23D1C"/>
<path d="M142.383 75.6179C141.273 75.6698 140.713 75.9499 141.117 76.2509C141.98 76.6377 142.925 76.8018 143.867 76.7282C144.978 76.7282 145.548 76.3962 145.133 76.0952C144.272 75.7063 143.326 75.5421 142.383 75.6179Z" fill="#E23D1C"/>
<path d="M90.6123 55.1355C89.5019 55.1355 88.9312 55.4571 89.3463 55.7581C90.2063 56.1519 91.1537 56.3164 92.0962 56.2354C93.2065 56.2354 93.7773 55.9137 93.3622 55.6024C92.4995 55.2179 91.5536 55.0573 90.6123 55.1355Z" fill="#E23D1C"/>
<path d="M134.777 68.6622C132.702 68.7348 131.664 69.264 132.421 69.8244C133.179 70.3847 135.472 70.7791 137.527 70.7064C139.582 70.6338 140.64 70.1046 139.872 69.5338C139.104 68.9631 136.832 68.5791 134.777 68.6622Z" fill="#E23D1C"/>
<path d="M145.455 66.9076C144.189 66.9076 143.535 67.2812 144.002 67.634C144.978 68.0733 146.049 68.2589 147.115 68.1736C148.392 68.1736 149.045 67.8 148.568 67.4576C147.593 67.0165 146.522 66.8274 145.455 66.9076Z" fill="#E23D1C"/>
<path d="M112.248 61.364C110.65 61.4262 109.831 61.8309 110.422 62.2772C111.665 62.8331 113.029 63.0652 114.386 62.9517C115.984 62.8894 116.804 62.4847 116.212 62.0489C114.97 61.4884 113.606 61.2528 112.248 61.364Z" fill="#E23D1C"/>
<path d="M124.649 59.9525C123.092 60.0147 122.304 60.409 122.875 60.8345C124.082 61.374 125.406 61.6023 126.724 61.4986C128.271 61.4364 129.07 61.042 128.489 60.6166C127.286 60.071 125.965 59.8424 124.649 59.9525Z" fill="#E23D1C"/>
<path d="M95.0744 64.354C93.2792 64.4266 92.366 64.8832 92.999 65.3917C94.3922 66.0261 95.9255 66.2906 97.4508 66.1596C99.246 66.0869 100.159 65.6303 99.5262 65.1219C98.133 64.4874 96.5997 64.2229 95.0744 64.354Z" fill="#E23D1C"/>
<path d="M72.9713 64.4162C71.9336 64.4162 71.4874 64.7068 71.8506 64.9766C72.6107 65.3218 73.4472 65.4648 74.2788 65.3917C75.2543 65.3917 75.7628 65.1115 75.3996 64.8417C74.6386 64.4986 73.8036 64.3523 72.9713 64.4162Z" fill="#E23D1C"/>
<path d="M63.6112 65.091C62.999 65.091 62.6773 65.2778 62.9056 65.4439C63.3874 65.6592 63.915 65.7519 64.4414 65.7137C65.064 65.7137 65.3857 65.5269 65.1574 65.3608C64.6735 65.1403 64.1412 65.0475 63.6112 65.091Z" fill="#E23D1C"/>
<path d="M65.3027 69.0257C64.6801 69.0257 64.3688 69.2021 64.5971 69.3785C65.0788 69.5938 65.6072 69.683 66.1329 69.638C66.7555 69.638 67.0669 69.4616 66.8386 69.2851C66.356 69.0729 65.8282 68.9838 65.3027 69.0257Z" fill="#E23D1C"/>
<path d="M80.972 55.7271C80.3494 55.7271 80.0381 55.9035 80.256 56.0799C80.7408 56.2968 81.2731 56.3861 81.8021 56.3393C82.4144 56.3393 82.7361 56.1629 82.5078 55.9969C82.027 55.7781 81.4985 55.6852 80.972 55.7271Z" fill="#E23D1C"/>
<path d="M121.66 56.0282C121.038 56.0282 120.726 56.215 120.955 56.381C121.436 56.5977 121.964 56.6904 122.491 56.6508C123.113 56.6508 123.425 56.4641 123.196 56.298C122.716 56.0766 122.187 55.9836 121.66 56.0282Z" fill="#E23D1C"/>
<path d="M147.229 56.4746C146.607 56.4746 146.285 56.651 146.513 56.8274C146.998 57.0444 147.53 57.1337 148.06 57.0868C148.672 57.0868 148.983 56.9104 148.755 56.734C148.276 56.5227 147.751 56.4335 147.229 56.4746Z" fill="#E23D1C"/>
<path d="M174.926 70.9254C174.303 70.9254 173.992 71.1122 174.22 71.2783C174.7 71.4997 175.229 71.5927 175.756 71.5481C176.378 71.5481 176.69 71.3613 176.461 71.1953C175.982 70.9738 175.452 70.8808 174.926 70.9254Z" fill="#E23D1C"/>
<path d="M161.913 82.4485C161.29 82.4485 160.969 82.6249 161.197 82.8013C161.682 83.0183 162.214 83.1076 162.743 83.0607C163.355 83.0607 163.677 82.8843 163.449 82.7183C162.968 82.4995 162.439 82.4067 161.913 82.4485Z" fill="#E23D1C"/>
<path d="M123.954 83.7672C123.331 83.7672 123.02 83.9436 123.248 84.12C123.731 84.3322 124.258 84.4213 124.784 84.3794C125.407 84.3794 125.718 84.203 125.49 84.0266C125.007 83.8144 124.479 83.7252 123.954 83.7672Z" fill="#E23D1C"/>
<path d="M81.5532 75.8255C80.9306 75.8255 80.6193 76.0019 80.8476 76.1783C81.3293 76.3936 81.8577 76.4828 82.3834 76.4378C83.006 76.4378 83.3173 76.2614 83.089 76.0849C82.6064 75.8727 82.0787 75.7836 81.5532 75.8255Z" fill="#E23D1C"/>
<path d="M71.7157 71.3615C70.5742 71.3615 69.9931 71.7039 70.4185 72.0152C71.307 72.4129 72.2812 72.5806 73.2515 72.5029C74.393 72.4511 74.9741 72.1605 74.5486 71.8492C73.6609 71.4493 72.686 71.2815 71.7157 71.3615Z" fill="#E23D1C"/>
<path d="M92.8641 70.0012C91.7226 70.0012 91.1415 70.3436 91.5566 70.655C92.4484 71.0535 93.4262 71.2212 94.3999 71.1427C95.5414 71.1427 96.1225 70.8106 95.697 70.4993C94.8114 70.0919 93.8355 69.9203 92.8641 70.0012Z" fill="#E23D1C"/>
<path d="M118.962 81.452C117.79 81.452 117.188 81.7944 117.624 82.1161C118.537 82.5291 119.541 82.7006 120.54 82.6142C121.712 82.6142 122.314 82.2718 121.878 81.9501C120.965 81.5371 119.961 81.3656 118.962 81.452Z" fill="#E23D1C"/>
<path d="M159.848 78.2442C158.603 78.2442 157.97 78.6074 158.437 78.9499C159.413 79.3851 160.484 79.5672 161.55 79.4791C162.785 79.4272 163.428 79.1159 162.961 78.7735C161.987 78.3288 160.914 78.1464 159.848 78.2442Z" fill="#E23D1C"/>
<path d="M172.778 71.8181C171.356 71.8803 170.63 72.2435 171.148 72.6275C172.253 73.1289 173.468 73.3362 174.677 73.2293C176.098 73.2293 176.825 72.8143 176.295 72.4303C175.194 71.9302 173.983 71.7195 172.778 71.8181Z" fill="#E23D1C"/>
<path d="M180.778 69.3163C178.558 69.3993 177.427 69.9701 178.246 70.5823C179.066 71.1945 181.536 71.62 183.746 71.5266C185.956 71.4332 187.098 70.8729 186.278 70.271C185.458 69.6691 182.999 69.2333 180.778 69.3163Z" fill="#E23D1C"/>
<path d="M91.1934 79.22C90.7935 79.2667 90.3895 79.2667 89.9897 79.22C89.1491 79.1162 88.7651 78.8566 89.118 78.6594C89.4117 78.5267 89.7297 78.456 90.0519 78.4518C90.4558 78.4157 90.8621 78.4157 91.266 78.4518C92.1066 78.566 92.4905 78.8151 92.1377 79.0228C91.8396 79.1521 91.5183 79.2192 91.1934 79.22ZM95.4479 77.0918C95.1032 77.133 94.7549 77.133 94.4102 77.0918C93.6942 76.9984 93.3726 76.7804 93.6631 76.6039C93.9191 76.4948 94.1943 76.4383 94.4725 76.4378C94.8172 76.3966 95.1655 76.3966 95.5102 76.4378C96.2262 76.5312 96.5479 76.7492 96.2574 76.9257C96.0003 77.0313 95.7257 77.0876 95.4479 77.0918ZM91.4216 75.7215C88.817 75.8876 85.9945 75.9187 84.8219 76.5831C84.469 76.7908 84.8219 77.424 84.6973 77.6213C84.2096 78.4518 85.3096 78.8463 87.6341 79.4899C88.7129 79.9661 89.8308 80.3481 90.9754 80.6319C91.7848 80.7461 92.6254 80.4035 93.4556 80.4554C95.2016 80.7132 96.9624 80.8589 98.7271 80.8914C100.791 80.8562 102.828 80.4189 104.725 79.6041C105.275 79.2823 105.545 78.9501 105.566 78.6179C105.566 78.4518 105.68 78.0469 105.566 77.8808C104.964 77.0088 102.556 76.417 99.1733 75.9603C96.6036 75.6256 94.0075 75.5421 91.4216 75.7111V75.7215Z" fill="#952500"/>
<path d="M91.6811 74.8289C89.6266 74.7933 87.5862 75.1747 85.6832 75.9501C83.4106 77.1751 85.8804 78.8776 91.2038 79.7496C93.7629 80.1574 96.3552 80.3173 98.945 80.2272C100.999 80.253 103.037 79.8719 104.943 79.106C107.216 77.8706 104.746 76.1785 99.4224 75.3064C96.8639 74.8931 94.2709 74.7332 91.6811 74.8289Z" fill="#B12600"/>
<path d="M94.5867 75.6178C94.3088 75.6105 94.0326 75.6636 93.7773 75.7734C93.4763 75.9291 93.7773 76.1678 94.5141 76.2819C94.8575 76.3325 95.2047 76.3533 95.5518 76.3442C95.8258 76.3455 96.0973 76.2926 96.3508 76.1885C96.6517 76.0329 96.3508 75.8046 95.614 75.68C95.2706 75.6289 94.9234 75.6081 94.5763 75.6178H94.5867Z" fill="#E2A4AC"/>
<path d="M98.945 78.6074C98.7151 78.6139 98.4876 78.6559 98.2706 78.7319C98.0215 78.8772 98.2705 79.064 98.8931 79.1574C99.1778 79.2035 99.4661 79.2243 99.7545 79.2196C99.9861 79.221 100.216 79.1751 100.429 79.0847C100.678 78.9498 100.429 78.763 99.8063 78.6696C99.5223 78.6183 99.2335 78.5974 98.945 78.6074Z" fill="#F4BDC6"/>
<path d="M90.1557 77.476C89.8358 77.4727 89.5184 77.5327 89.2217 77.6524C88.8689 77.8392 89.2218 78.109 90.0831 78.2439C90.4843 78.3089 90.891 78.3332 91.2971 78.3166C91.6175 78.3249 91.9359 78.2647 92.2311 78.1401C92.5839 77.9534 92.2311 77.6836 91.3698 77.5487C90.968 77.4886 90.5618 77.4643 90.1557 77.476Z" fill="#F4BDC6"/>
<path d="M144.49 60.3883C144.143 60.3986 143.795 60.3777 143.452 60.326C142.757 60.2014 142.414 59.973 142.726 59.8069C142.978 59.7108 143.245 59.6615 143.514 59.6616C143.861 59.6513 144.209 59.6721 144.552 59.7239C145.247 59.8484 145.59 60.0768 145.278 60.2429C145.028 60.3441 144.76 60.3935 144.49 60.3883ZM134.85 59.4124H134.383C134.051 59.3501 133.905 59.2463 134.04 59.1736C134.155 59.1262 134.279 59.1015 134.403 59.101C134.562 59.0906 134.722 59.0906 134.881 59.101C135.202 59.101 135.358 59.2671 135.213 59.3398C135.098 59.3897 134.974 59.4145 134.85 59.4124ZM139.374 58.7376C139.082 58.751 138.79 58.7336 138.502 58.6857C137.9 58.5819 137.62 58.3847 137.88 58.2497C138.094 58.1636 138.323 58.1213 138.554 58.1251C138.847 58.0947 139.143 58.0947 139.436 58.1251C140.028 58.2289 140.308 58.4262 140.048 58.5612C139.834 58.6472 139.605 58.6896 139.374 58.6857V58.7376ZM135.96 57.4607C134.236 57.4351 132.524 57.7564 130.927 58.4054C130.761 58.4885 130.47 57.9694 130.367 58.0525C130.268 58.245 130.218 58.4589 130.221 58.6753C130.107 59.5993 130.491 59.3813 131.591 59.9107C132.804 60.7154 134.144 61.3086 135.555 61.6652C136.188 61.7794 137.101 61.4679 137.755 61.5302C139.225 61.7055 140.706 61.7749 142.186 61.7378C144.365 61.6548 146.15 61.6756 147.146 61.1357C147.676 60.845 148.184 60.4817 148.122 60.1599C148.06 59.8381 148.122 59.319 147.904 59.1217C147.209 58.4366 145.081 58.2808 142.518 57.8552C140.351 57.4984 138.154 57.3593 135.96 57.44V57.4607Z" fill="#952500"/>
<path d="M136.064 56.5991C134.34 56.5735 132.628 56.8948 131.031 57.5439C129.101 58.582 131.176 60.0561 135.659 60.8036C137.822 61.1637 140.015 61.3063 142.207 61.2292C143.935 61.2521 145.65 60.9273 147.25 60.2742C149.17 59.236 147.105 57.7722 142.622 57.0144C140.455 56.6575 138.258 56.5184 136.064 56.5991Z" fill="#B12600"/>
<path d="M138.658 57.2635C138.427 57.2585 138.197 57.3009 137.983 57.3881C137.724 57.5333 137.983 57.7201 138.596 57.8239C138.887 57.8752 139.182 57.8961 139.478 57.8862C139.709 57.8876 139.939 57.8417 140.152 57.7512C140.412 57.6163 140.152 57.4192 139.54 57.3154C139.248 57.2731 138.953 57.2557 138.658 57.2635Z" fill="#F4BDC6"/>
<path d="M141.678 60.3468C141.554 60.3457 141.431 60.3668 141.314 60.4091C141.169 60.4921 141.314 60.5958 141.646 60.6477C141.805 60.668 141.965 60.668 142.124 60.6477C142.248 60.6508 142.371 60.6296 142.487 60.5855C142.632 60.5025 142.487 60.3987 142.155 60.3468C141.996 60.3261 141.836 60.3261 141.678 60.3468Z" fill="#F4BDC6"/>
<path d="M134.507 58.2082C134.383 58.2087 134.259 58.2334 134.144 58.2808C133.999 58.3535 134.144 58.4572 134.476 58.5195H134.953C135.078 58.5216 135.202 58.4968 135.317 58.4469C135.462 58.3742 135.317 58.2704 134.985 58.2082C134.826 58.1982 134.666 58.1982 134.507 58.2082Z" fill="#F4BDC6"/>
<path d="M143.629 58.8001C143.358 58.8026 143.091 58.8554 142.84 58.9557C142.539 59.1114 142.84 59.3397 143.566 59.4642C143.91 59.5159 144.257 59.5368 144.604 59.5265C144.871 59.533 145.136 59.4835 145.382 59.3812C145.694 59.2152 145.382 58.9869 144.666 58.8727C144.324 58.8124 143.976 58.7881 143.629 58.8001Z" fill="#F4BDC6"/>
<path d="M79.9551 70.562C79.7409 70.5772 79.526 70.5772 79.3118 70.562C78.8863 70.4893 78.6788 70.344 78.8656 70.2402C79.0206 70.1779 79.1862 70.1462 79.3533 70.1468C79.5673 70.1264 79.7827 70.1264 79.9967 70.1468C80.4221 70.2194 80.6297 70.3648 80.4429 70.4686C80.2875 70.5296 80.1221 70.5613 79.9551 70.562ZM73.1582 70.3648C72.8594 70.374 72.5604 70.3531 72.2658 70.3025C71.6639 70.1987 71.3837 70.0014 71.6431 69.8665C71.8586 69.7712 72.0926 69.7251 72.328 69.7315C72.6269 69.722 72.9259 69.7428 73.2204 69.7938C73.8223 69.8976 74.1025 70.0948 73.8431 70.2298C73.628 70.3261 73.3938 70.3722 73.1582 70.3648ZM77.0185 69.3266C76.7666 69.3522 76.5128 69.3522 76.2609 69.3266C75.7317 69.2332 75.5034 69.0671 75.7213 68.9425C75.9055 68.8661 76.1031 68.8272 76.3025 68.8283C76.5595 68.8201 76.8167 68.8374 77.0703 68.8802C77.5892 68.9633 77.8279 69.1398 77.5996 69.2643C77.4159 69.3414 77.2175 69.3769 77.0185 69.3682V69.3266ZM74.061 68.2054C72.5639 68.1876 71.0785 68.47 69.6923 69.036C69.4951 69.1502 69.2357 68.4754 69.1319 68.5895C68.364 69.4616 70.2734 71.3095 73.6874 71.8804C75.576 72.2023 77.6307 71.5275 79.4156 71.4548C81.2004 71.3821 82.9023 71.4548 83.7635 71.0292C84.0268 70.8839 84.2292 70.6489 84.3339 70.3669C84.4386 70.085 84.4388 69.7748 84.3343 69.4927C83.9192 68.8283 82.2588 68.9944 79.7476 68.5792C77.8691 68.2667 75.9642 68.1415 74.061 68.2054Z" fill="#952500"/>
<path d="M74.0505 67.0636C72.5529 67.0394 71.0662 67.322 69.6818 67.8941C68.0111 68.8076 69.796 70.0845 73.677 70.7386C75.5555 71.0511 77.4603 71.1763 79.3636 71.1123C80.8606 71.1302 82.3461 70.8478 83.7323 70.2818C85.403 69.3682 83.6078 68.0913 79.7372 67.4269C77.8577 67.1232 75.9533 67.0015 74.0505 67.0636Z" fill="#B12600"/>
<path d="M76.292 67.6447C76.0926 67.6436 75.895 67.6824 75.7109 67.7588C75.4826 67.8833 75.7109 68.0494 76.2401 68.1324C76.4896 68.1805 76.744 68.198 76.9976 68.1843C77.1997 68.1887 77.4006 68.1534 77.5891 68.0805C77.8174 67.956 77.5891 67.7796 77.0599 67.6966C76.8062 67.6541 76.5491 67.6368 76.292 67.6447Z" fill="#E2A4AC"/>
<path d="M79.3428 68.9734C79.1758 68.9728 79.0101 69.0046 78.8551 69.0668C78.6683 69.1706 78.8551 69.3055 79.3013 69.3781C79.5115 69.4035 79.7241 69.4035 79.9343 69.3781C80.1023 69.3901 80.2704 69.3579 80.422 69.2847C80.6088 69.1913 80.422 69.0461 79.9758 68.9734C79.7656 68.948 79.5531 68.948 79.3428 68.9734Z" fill="#F4BDC6"/>
<path d="M78.907 70.3336C78.797 70.3359 78.6882 70.3569 78.5853 70.3959C78.4608 70.4685 78.5853 70.5619 78.8759 70.6034C79.0141 70.6137 79.1528 70.6137 79.291 70.6034C79.3975 70.6002 79.5027 70.5791 79.6023 70.5411C79.7268 70.4685 79.6023 70.3855 79.3117 70.3336C79.177 70.3237 79.0417 70.3237 78.907 70.3336Z" fill="#F4BDC6"/>
<path d="M72.3175 68.6C72.0832 68.595 71.8502 68.6374 71.6326 68.7245C71.3732 68.8698 71.6326 69.067 72.2552 69.1707C72.5498 69.222 72.8488 69.2429 73.1477 69.233C73.3793 69.2344 73.6089 69.1885 73.8222 69.0981C74.092 68.9632 73.8221 68.7556 73.1995 68.6519C72.9061 68.6264 72.611 68.6264 72.3175 68.6519V68.6Z" fill="#F4BDC6"/>
<path d="M165.991 65.6827C165.75 65.7082 165.506 65.7082 165.265 65.6827C164.767 65.5892 164.528 65.4128 164.746 65.2674C164.925 65.1865 165.12 65.1441 165.316 65.1429C165.558 65.1173 165.801 65.1173 166.043 65.1429C166.541 65.2363 166.769 65.4128 166.562 65.5581C166.384 65.6439 166.188 65.6866 165.991 65.6827ZM161.456 65.2986C161.109 65.3206 160.761 65.2997 160.419 65.2363C159.713 65.1117 159.381 64.8522 159.692 64.6549C159.94 64.5411 160.208 64.4809 160.481 64.4784C160.828 64.4564 161.177 64.4773 161.519 64.5407C162.224 64.6653 162.556 64.9248 162.245 65.1117C162 65.2348 161.73 65.2987 161.456 65.2986ZM162.494 62.4229C160.739 62.425 159.007 62.8262 157.43 63.596C155.811 64.6342 157.077 65.5996 160.169 66.4717C160.78 66.7753 161.408 67.0456 162.048 67.2814C164.206 67.5303 166.386 67.5303 168.544 67.2814C170.744 67.1465 172.632 67.1049 173.629 66.4717C174.023 66.2543 174.334 65.9107 174.511 65.4958C174.516 65.149 174.499 64.8022 174.459 64.4577C172.709 63.6833 170.878 63.1087 169 62.7448C166.853 62.3688 164.671 62.2365 162.494 62.3503V62.4229Z" fill="#952500"/>
<path d="M162.587 61.6964C160.833 61.6974 159.102 62.0949 157.523 62.8591C155.604 64.0945 157.679 65.7451 162.152 66.5445C164.298 66.9259 166.481 67.0583 168.658 66.939C170.412 66.938 172.143 66.5405 173.722 65.7763C175.642 64.5409 173.566 62.8903 169.094 62.0909C166.947 61.7146 164.764 61.5823 162.587 61.6964Z" fill="#B12600"/>
<path d="M165.379 64.3748C165.181 64.3709 164.986 64.4136 164.808 64.4994C164.601 64.6343 164.808 64.8211 165.327 64.9145C165.568 64.94 165.812 64.94 166.053 64.9145C166.25 64.9132 166.445 64.8708 166.624 64.7899C166.832 64.6447 166.624 64.4579 166.105 64.3748C165.864 64.3441 165.62 64.3441 165.379 64.3748Z" fill="#F4BDC6"/>
<path d="M168.17 65.932C168.041 65.9302 167.913 65.9586 167.797 66.015C167.662 66.098 167.797 66.2225 168.139 66.2848C168.294 66.3 168.451 66.3 168.606 66.2848C168.743 66.318 168.886 66.3144 169.021 66.2744C169.156 66.1914 169.021 66.0669 168.679 66.0046C168.523 65.9893 168.367 65.9893 168.212 66.0046L168.17 65.932Z" fill="#F4BDC6"/>
<path d="M160.564 63.7519C160.291 63.7544 160.023 63.8145 159.775 63.9283C159.474 64.1255 159.775 64.3849 160.502 64.5094C160.844 64.5728 161.192 64.5937 161.539 64.5717C161.813 64.5719 162.083 64.5079 162.328 64.3849C162.629 64.1981 162.328 63.9387 161.602 63.8142C161.259 63.7508 160.911 63.7299 160.564 63.7519Z" fill="#F4BDC6"/>
<path d="M151.11 74.3096C150.952 74.3303 150.791 74.3303 150.633 74.3096C150.301 74.2473 150.156 74.1124 150.301 74.0085C150.413 73.9484 150.537 73.913 150.664 73.9047C150.823 73.8841 150.983 73.8841 151.141 73.9047C151.463 73.967 151.619 74.102 151.484 74.2058C151.371 74.2736 151.242 74.3095 151.11 74.3096ZM152.677 73.7386C152.436 73.7694 152.192 73.7694 151.951 73.7386C151.442 73.6348 151.214 73.4272 151.432 73.2611C151.607 73.1629 151.803 73.1094 152.003 73.1054C152.246 73.092 152.49 73.1095 152.729 73.1573C153.238 73.2507 153.466 73.4583 153.248 73.6244C153.073 73.7226 152.877 73.7761 152.677 73.7801V73.7386ZM158.374 72.5967C158.079 72.6206 157.782 72.6031 157.492 72.5448C156.89 72.4306 156.61 72.1814 156.88 71.9842C157.087 71.8618 157.324 71.7973 157.565 71.7973C157.856 71.7736 158.15 71.791 158.437 71.8492C159.038 71.9634 159.319 72.223 159.059 72.4098C158.851 72.5303 158.615 72.5947 158.374 72.5967ZM151.961 70.5204C149.751 70.6865 147.489 70.5204 146.482 71.299C146.078 71.6001 146.223 72.5344 146.15 72.8666C145.891 74.102 147.925 75.4308 151.484 76.1263C153.637 76.5405 155.835 76.6696 158.021 76.5104C159.814 76.4912 161.572 76.0123 163.127 75.1194C163.596 74.7965 163.922 74.306 164.04 73.749C164.04 73.4479 164.113 72.4513 163.874 72.1607C163.168 71.2886 161.031 71.4028 158.509 70.9045C156.353 70.4906 154.151 70.3615 151.961 70.5204Z" fill="#952500"/>
<path d="M152.044 69.3891C150.251 69.411 148.493 69.8936 146.939 70.7905C144.998 72.2336 147.063 74.1126 151.557 75.0054C153.713 75.4193 155.914 75.5484 158.104 75.3895C159.898 75.3676 161.656 74.885 163.21 73.988C165.151 72.5554 163.075 70.666 158.592 69.7732C156.436 69.3593 154.234 69.2302 152.044 69.3891Z" fill="#B12600"/>
<path d="M157.606 70.6659C157.366 70.6697 157.131 70.7339 156.922 70.8527C156.652 71.0498 156.921 71.2989 157.534 71.4234C157.827 71.4592 158.123 71.4592 158.416 71.4234C158.653 71.4183 158.885 71.3541 159.09 71.2366C159.36 71.0395 159.09 70.7904 158.478 70.6659C158.191 70.6131 157.898 70.5957 157.606 70.614V70.6659Z" fill="#E2A4AC"/>
<path d="M152.086 71.9429C151.885 71.9417 151.688 71.9955 151.515 72.0985C151.297 72.2542 151.515 72.4721 152.034 72.5655C152.273 72.6133 152.517 72.6307 152.76 72.6174C152.961 72.6106 153.158 72.5535 153.331 72.4514C153.549 72.2957 153.331 72.0882 152.812 71.9844C152.571 71.9537 152.327 71.9537 152.086 71.9844V71.9429Z" fill="#E2A4AC"/>
<path d="M159.568 73.687C159.436 73.6891 159.308 73.7248 159.194 73.7908C159.059 73.8945 159.194 74.0294 159.536 74.1021C159.691 74.1225 159.848 74.1225 160.003 74.1021C160.136 74.1054 160.266 74.0693 160.377 73.9983C160.522 73.8945 160.377 73.7596 160.045 73.6974C159.886 73.6771 159.726 73.6771 159.568 73.6974V73.687Z" fill="#F4BDC6"/>
<path d="M150.747 72.7525C150.617 72.7546 150.489 72.7866 150.374 72.8459C150.239 72.96 150.374 73.0949 150.716 73.1572C150.874 73.1778 151.035 73.1778 151.193 73.1572C151.32 73.1489 151.444 73.1135 151.557 73.0534C151.702 72.9496 151.557 72.8147 151.224 72.7525C151.066 72.7267 150.905 72.7267 150.747 72.7525Z" fill="#E2A4AC"/>
<path d="M138.928 82.9679C138.581 82.9857 138.232 82.9648 137.89 82.9056C137.164 82.781 136.852 82.5215 137.132 82.3346C137.394 82.2192 137.677 82.1591 137.963 82.1582C138.31 82.1404 138.658 82.1613 139 82.2204C139.737 82.345 140.038 82.6045 139.758 82.7914C139.5 82.9169 139.215 82.9775 138.928 82.9679ZM132.266 82.4073C131.769 82.4309 131.272 82.4031 130.782 82.3243C129.744 82.1374 129.277 81.7844 129.744 81.5145C130.11 81.3533 130.506 81.2686 130.906 81.2654C131.406 81.2457 131.907 81.277 132.401 81.3588C133.438 81.5353 133.905 81.8986 133.438 82.1582C133.075 82.3304 132.677 82.4157 132.276 82.4073H132.266ZM138.772 80.4452C138.341 80.4635 137.91 80.4356 137.485 80.3622C136.614 80.2168 136.198 79.9054 136.582 79.677C136.908 79.5281 137.262 79.4536 137.62 79.459C138.047 79.4411 138.475 79.4689 138.896 79.542C139.779 79.6978 140.183 79.9988 139.81 80.2272C139.484 80.3748 139.13 80.4492 138.772 80.4452ZM133.833 78.4416C130.605 78.5973 127.42 78.4935 125.956 79.3759C125.313 79.7704 125.417 80.8397 125.365 81.2757C125.23 82.3139 127.087 82.781 129.993 83.6427C131.031 83.9541 131.902 84.93 133.2 85.1584C136.001 85.6463 138.637 85.1584 141.366 85.1584C141.709 85.1584 142.809 85.3971 143.151 85.3868C146.378 85.2207 148.724 85.0649 150.176 84.1929C150.83 83.7984 151.484 83.2378 151.536 82.8018C151.612 82.1541 151.5 81.4982 151.214 80.9124C150.176 79.812 147.177 79.7185 143.379 79.0541C140.227 78.523 137.026 78.3316 133.833 78.4831V78.4416Z" fill="#952500"/>
<path d="M134.061 77.3828C130.844 77.5489 128.094 78.0888 126.631 78.9712C123.819 80.6737 126.87 82.968 133.438 84.0996C136.591 84.6343 139.791 84.8292 142.985 84.6809C146.202 84.5148 148.952 83.975 150.415 83.0926C153.217 81.4004 150.176 79.0957 143.608 77.9642C140.455 77.4294 137.255 77.2345 134.061 77.3828Z" fill="#B12600"/>
<path d="M137.662 78.4C137.305 78.3934 136.951 78.4642 136.624 78.6076C136.25 78.8358 136.624 79.1472 137.537 79.3028C137.959 79.3727 138.387 79.397 138.814 79.3754C139.171 79.3848 139.525 79.3139 139.851 79.1679C140.235 78.9396 139.851 78.6283 138.938 78.4726C138.516 78.4074 138.089 78.383 137.662 78.4Z" fill="#F4BDC6"/>
<path d="M138.025 81.0993C137.738 81.0896 137.453 81.1502 137.195 81.2757C136.884 81.4625 137.195 81.7219 137.952 81.8464C138.295 81.9056 138.643 81.9264 138.99 81.9087C139.276 81.9054 139.558 81.8454 139.82 81.7323C140.132 81.5455 139.82 81.2861 139.052 81.1615C138.71 81.1017 138.362 81.0808 138.015 81.0993H138.025Z" fill="#F4BDC6"/>
<path d="M142.124 83.2686C141.938 83.2666 141.754 83.3056 141.584 83.3828C141.377 83.5073 141.584 83.6734 142.072 83.7564C142.303 83.7819 142.536 83.7819 142.767 83.7564C142.953 83.7584 143.137 83.7195 143.307 83.6422C143.514 83.5177 143.307 83.3517 142.809 83.2686C142.581 83.2435 142.351 83.2435 142.124 83.2686Z" fill="#F4BDC6"/>
<path d="M130.969 80.2067C130.568 80.2033 130.171 80.2883 129.806 80.4557C129.36 80.7152 129.806 81.0784 130.844 81.2548C131.338 81.3366 131.838 81.3679 132.338 81.3482C132.739 81.3449 133.134 81.2602 133.501 81.0991C133.936 80.8293 133.501 80.4765 132.463 80.3001C131.973 80.2128 131.476 80.1815 130.979 80.2067H130.969Z" fill="#F4BDC6"/>
<path d="M115.133 70.2714C114.881 70.2969 114.628 70.2969 114.376 70.2714C113.857 70.1676 113.618 69.9703 113.836 69.825C114.022 69.7391 114.223 69.6931 114.428 69.69C114.681 69.6769 114.936 69.6944 115.185 69.7419C115.704 69.8353 115.943 70.0326 115.714 70.1779C115.534 70.2678 115.335 70.3141 115.133 70.3129V70.2714ZM110.412 68.8491C110.064 68.8587 109.717 68.8344 109.374 68.7764C108.648 68.6415 108.336 68.3716 108.627 68.164C108.882 68.0401 109.163 67.9762 109.447 67.9771C109.794 67.9586 110.142 67.9795 110.484 68.0394C111.211 68.1743 111.522 68.4546 111.231 68.6519C110.981 68.7802 110.704 68.8478 110.422 68.8491H110.412ZM115.061 67.3127C114.755 67.3278 114.448 67.3069 114.147 67.2504C113.525 67.1362 113.234 66.9078 113.504 66.7313C113.724 66.624 113.965 66.5672 114.21 66.5652C114.515 66.5504 114.822 66.5713 115.123 66.6275C115.735 66.7417 116.026 66.9701 115.756 67.1466C115.54 67.2555 115.302 67.3124 115.061 67.3127ZM111.522 65.797C109.26 65.9216 107.226 65.6724 106.188 66.3472C105.851 66.617 105.621 66.9982 105.539 67.4225C105.457 67.8468 105.529 68.2863 105.742 68.6623C106.344 69.5447 108.243 70.3959 111.076 70.9254C113.321 71.327 115.605 71.4699 117.883 71.351C119.683 71.3386 121.456 70.9199 123.072 70.126C123.288 70.0086 123.476 69.8449 123.623 69.6466C123.769 69.4483 123.87 69.2203 123.919 68.9786C123.967 68.7369 123.962 68.4875 123.904 68.2481C123.845 68.0087 123.735 67.785 123.58 67.593C122.781 66.8351 120.778 66.6794 118.288 66.2123C116.043 65.8088 113.758 65.6694 111.48 65.797H111.522Z" fill="#952500"/>
<path d="M111.563 65.0184C109.765 65.0301 107.992 65.4452 106.375 66.2331C104.372 67.5411 106.51 69.2852 111.159 70.1468C113.403 70.5556 115.688 70.6984 117.966 70.5725C119.766 70.5633 121.54 70.1444 123.155 69.3475C125.157 68.0498 123.02 66.3057 118.371 65.4441C116.126 65.0376 113.841 64.8947 111.563 65.0184Z" fill="#B12600"/>
<path d="M114.241 65.797C114 65.7949 113.762 65.8481 113.545 65.9527C113.276 66.1291 113.546 66.3678 114.179 66.4819C114.48 66.5348 114.786 66.5522 115.092 66.5338C115.336 66.5358 115.577 66.4826 115.797 66.3782C116.067 66.2018 115.797 65.9631 115.154 65.8489C114.853 65.7958 114.546 65.7784 114.241 65.797Z" fill="#F4BDC6"/>
<path d="M114.49 68.8593C114.288 68.8581 114.089 68.9043 113.909 68.9942C113.68 69.1395 113.909 69.3366 114.438 69.43C114.689 69.4609 114.944 69.4609 115.195 69.43C115.401 69.4372 115.605 69.3908 115.787 69.2951C116.005 69.1499 115.787 68.9527 115.247 68.8593C114.996 68.8285 114.741 68.8285 114.49 68.8593Z" fill="#F4BDC6"/>
<path d="M109.478 67.1777C109.193 67.1808 108.913 67.2482 108.658 67.3749C108.347 67.572 108.658 67.8522 109.405 67.9871C109.748 68.0462 110.096 68.0671 110.443 68.0494C110.727 68.0488 111.007 67.985 111.263 67.8626C111.574 67.655 111.263 67.3852 110.515 67.2503C110.173 67.1928 109.825 67.1684 109.478 67.1777Z" fill="#F4BDC6"/>
<path d="M106.437 58.5198C106.337 58.5344 106.236 58.5344 106.136 58.5198C105.929 58.5198 105.835 58.3952 105.929 58.3225C105.997 58.2795 106.076 58.2578 106.157 58.2603C106.257 58.2456 106.358 58.2456 106.458 58.2603C106.666 58.2603 106.748 58.3952 106.665 58.4679C106.595 58.505 106.517 58.5262 106.437 58.5302V58.5198ZM108.699 57.8865C108.596 57.9022 108.491 57.9022 108.388 57.8865C108.191 57.8865 108.098 57.7516 108.181 57.6893C108.252 57.6438 108.334 57.6187 108.419 57.6166C108.516 57.6063 108.613 57.6063 108.71 57.6166C108.917 57.6166 109.011 57.7516 108.917 57.8242C108.85 57.8615 108.776 57.8828 108.699 57.8865ZM110.567 57.2014C110.416 57.2219 110.262 57.2219 110.111 57.2014C109.799 57.1287 109.654 56.9937 109.789 56.8899C109.893 56.8206 110.016 56.7844 110.142 56.7861C110.293 56.7655 110.447 56.7655 110.598 56.7861C110.92 56.8484 111.055 56.9833 110.93 57.0872C110.822 57.1568 110.696 57.1929 110.567 57.191V57.2014ZM105.524 57.5128C105.307 57.5436 105.087 57.5436 104.87 57.5128C104.434 57.4194 104.237 57.2221 104.424 57.0768C104.574 56.9842 104.746 56.934 104.922 56.9314C105.135 56.8956 105.353 56.8956 105.565 56.9314C106.001 57.0145 106.209 57.2117 106.012 57.3675C105.864 57.456 105.696 57.5027 105.524 57.5024V57.5128ZM108.284 56.7757C108.102 56.8067 107.916 56.8067 107.734 56.7757C107.35 56.7031 107.184 56.5266 107.35 56.402C107.48 56.3273 107.626 56.2846 107.776 56.2774C107.958 56.253 108.143 56.253 108.326 56.2774C108.699 56.3501 108.876 56.5162 108.71 56.6511C108.581 56.7264 108.434 56.7658 108.284 56.7653V56.7757ZM106.157 55.7376C104.777 55.8414 103.573 55.5507 102.94 56.0386C101.716 56.9937 103.044 58.8416 105.846 59.423C107.211 59.701 108.608 59.7884 109.996 59.6825C111.298 59.6564 112.556 59.2043 113.577 58.3952C114.749 57.191 113.11 56.5785 110.297 55.9867C108.932 55.711 107.535 55.6271 106.147 55.7376H106.157Z" fill="#952500"/>
<path d="M106.302 54.9278C105.178 54.9454 104.079 55.2606 103.117 55.8413C101.902 56.786 103.189 58.0318 105.991 58.6131C107.356 58.8912 108.753 58.9785 110.142 58.8727C111.262 58.8504 112.356 58.5354 113.317 57.9591C114.542 57.004 113.255 55.7687 110.443 55.1769C109.077 54.9011 107.68 54.8173 106.292 54.9278H106.302Z" fill="#B12600"/>
<path d="M107.797 55.4571C107.647 55.4566 107.5 55.496 107.371 55.5712C107.205 55.6957 107.371 55.8721 107.755 55.9448C107.937 55.9756 108.123 55.9756 108.305 55.9448C108.455 55.9452 108.601 55.9058 108.731 55.8306C108.897 55.6957 108.731 55.5297 108.347 55.4571C108.165 55.4261 107.979 55.4261 107.797 55.4571Z" fill="#F4BDC6"/>
<path d="M110.152 55.9657C110.024 55.9638 109.897 55.9999 109.789 56.0695C109.654 56.1733 109.789 56.3082 110.111 56.3808C110.266 56.4013 110.423 56.4013 110.578 56.3808C110.701 56.3789 110.822 56.3468 110.931 56.2874C111.065 56.1733 110.931 56.0384 110.609 55.9761C110.457 55.9562 110.304 55.9562 110.152 55.9761V55.9657Z" fill="#F4BDC6"/>
<path d="M109.644 58.0942C109.562 58.0941 109.482 58.1195 109.415 58.1668C109.322 58.2291 109.415 58.3225 109.623 58.364C109.723 58.3786 109.824 58.3786 109.924 58.364C110.005 58.3621 110.085 58.3369 110.152 58.2913C110.235 58.2291 110.152 58.1357 109.945 58.0942C109.845 58.0842 109.744 58.0842 109.644 58.0942Z" fill="#F4BDC6"/>
<path d="M108.419 56.7966C108.337 56.7965 108.258 56.8219 108.191 56.8692C108.098 56.9418 108.191 57.0249 108.399 57.0664C108.498 57.081 108.6 57.081 108.699 57.0664C108.779 57.0624 108.857 57.0412 108.928 57.0041C109.011 56.9315 108.928 56.8381 108.72 56.7966C108.62 56.7866 108.519 56.7866 108.419 56.7966Z" fill="#F4BDC6"/>
<path d="M106.157 57.4403C106.077 57.4406 105.998 57.4621 105.929 57.5025C105.835 57.5752 105.929 57.6582 106.136 57.6997C106.236 57.7143 106.338 57.7143 106.437 57.6997C106.517 57.6972 106.595 57.6758 106.666 57.6374C106.759 57.5648 106.666 57.4714 106.458 57.4299C106.358 57.4143 106.257 57.4143 106.157 57.4299V57.4403Z" fill="#F4BDC6"/>
<path d="M104.922 56.1011C104.747 56.1065 104.575 56.1565 104.424 56.2464C104.237 56.3916 104.424 56.5888 104.881 56.6718C105.094 56.7076 105.311 56.7076 105.524 56.6718C105.699 56.6695 105.87 56.6231 106.022 56.5369C106.209 56.3813 106.022 56.1945 105.576 56.1011C105.36 56.0653 105.139 56.0653 104.922 56.1011Z" fill="#F4BDC6"/>
<path d="M92.2934 48.9379H92.9575C94.6075 48.8341 95.7178 48.3773 97.4508 48.3046C99.8375 48.2112 101.415 49.3428 102.504 49.3428C102.774 49.3428 103.065 49.4051 103.335 49.3428C104.372 49.3428 105.41 49.0625 106.448 49.021C106.904 49.021 107.309 49.3116 107.776 49.3116C109.581 49.3116 111.678 49.6646 113.483 49.7061C115.289 49.7476 117.188 49.8722 119.004 49.9449C120.82 50.0176 122.605 50.0695 124.431 50.1733C126.257 50.2771 128.021 50.0695 129.827 50.1733C131.633 50.2771 133.418 50.3601 135.223 50.5366C137.029 50.7131 138.824 50.8896 140.598 51.0972C142.373 51.3049 143.712 52.2495 145.424 52.4987C147.136 52.7479 150.145 51.99 151.826 52.2599C153.507 52.5298 154.836 52.7479 156.465 53.0489C158.094 53.35 159.578 53.9729 161.176 54.2947C162.774 54.6165 163.552 55.2082 165.047 55.5612C166.541 55.9142 169 56.1529 170.412 56.5267C171.823 56.9004 172.414 56.2671 173.732 56.6616C175.05 57.0561 177.167 57.3053 178.392 57.6998C179.616 58.0943 180.467 58.5926 181.577 59.0286C182.688 59.4646 182.74 60.0148 183.746 60.4612C184.753 60.9076 187.503 61.1775 188.385 61.6447C189.267 62.1118 190.211 62.579 190.969 63.0462C191.726 63.5133 190.751 64.0843 191.394 64.5411C192.013 64.9811 192.608 65.4523 193.179 65.9529C193.818 66.3914 194.431 66.8663 195.016 67.3752C195.28 67.8209 195.486 68.2989 195.628 68.7974C195.942 69.2414 196.206 69.7183 196.417 70.2197C196.605 70.6739 196.727 71.1529 196.78 71.6419C196.78 72.0987 195.13 72.4517 194.964 72.8981C194.798 73.3445 195.555 73.9362 195.254 74.3203C194.864 74.7866 194.43 75.2143 193.957 75.5972C193.511 76.0332 193.438 76.5108 192.919 76.9157C192.401 77.3205 191.145 77.6424 190.45 78.0265C189.754 78.4106 190.585 79.0646 189.765 79.4591C188.945 79.8536 186.88 79.9678 185.936 80.3207C184.991 80.6737 184.898 81.2135 183.86 81.5354C182.823 81.8572 179.896 81.7222 178.724 82.0129C177.551 82.3036 177.852 83.051 176.576 83.2794C175.299 83.5078 174.23 83.9023 172.861 84.1307C172.428 84.1949 171.991 84.233 171.553 84.2449C170.63 84.2449 169.571 84.2449 168.648 84.3072C168.222 84.3072 167.838 84.3072 167.506 84.3902C166.053 84.5979 165.057 84.9924 163.521 85.1585L162.577 85.2311C161.415 85.2311 160.045 85.2311 158.872 85.2311H158.177C156.589 85.3661 155.79 85.9682 154.12 86.072H153.954C152.304 86.1447 149.948 85.7502 148.267 85.8125C146.586 85.8748 145.455 86.3627 143.815 86.425H143.618C141.854 86.425 139.623 85.9993 137.849 85.989H137.05C135.929 85.989 134.86 86.1551 133.75 86.1966C133.386 86.1966 133.023 86.1966 132.639 86.1966C130.823 86.1966 128.997 86.2485 127.181 86.1966C125.365 86.1447 123.476 85.5737 121.66 85.4595C119.844 85.3453 117.997 85.3765 116.181 85.2311C114.365 85.0858 112.663 84.7743 110.858 84.5979C109.052 84.4214 107.309 84.2345 105.534 84.0269C103.76 83.8193 101.384 84.0269 99.6507 83.84C97.9177 83.6531 96.6517 83.0095 94.9603 82.7396C93.2688 82.4697 92.2207 81.9091 90.5915 81.608C88.9623 81.307 86.337 81.4212 84.77 81.0993C83.2031 80.7775 82.3833 80.1858 80.889 79.8328C79.3947 79.4798 78.0976 79.0957 76.7382 78.722C75.3788 78.3483 74.5072 77.8707 73.1893 77.4762C71.8714 77.0817 69.4639 76.9156 68.2394 76.4381C67.0149 75.9606 65.5206 75.6491 64.3999 75.2131C63.2792 74.7771 63.5179 74.175 62.5217 73.7493C61.5255 73.3237 60.3425 72.8981 59.4604 72.4413C58.5784 71.9845 57.385 71.5589 56.5963 71.0917C55.8077 70.6245 55.3823 70.1574 54.7389 69.6798C54.0955 69.2023 54.4068 68.7248 53.9087 68.2576C53.4106 67.7904 50.972 67.3233 50.5985 66.8457C50.2249 66.3682 50.5154 65.8906 50.2768 65.4235C50.0381 64.9563 50.8579 64.5099 50.7541 64.0428C50.6504 63.5756 50.0069 63.0877 50.0484 62.6205C50.09 62.1534 50.5777 61.7381 50.7541 61.2813C50.9305 60.8246 50.7541 60.3574 51.0965 59.9214C51.439 59.4854 52.5493 59.1324 52.9955 58.7068C53.579 58.2745 54.189 57.8792 54.8219 57.5233C55.3927 57.108 55.2059 56.6097 55.8596 56.2152C56.5134 55.8207 58.0284 55.582 58.8482 55.1771C59.668 54.7722 59.3566 54.222 60.301 53.8794C61.2453 53.5368 62.3141 53.215 63.4141 52.8932C64.514 52.5714 65.9046 52.3534 67.0772 52.0627C68.2498 51.772 69.5158 51.5125 70.7818 51.2529C72.0478 50.9934 72.8572 50.5678 74.1647 50.329C75.4722 50.0902 77.174 49.9656 78.6268 49.758C79.0883 49.6997 79.5523 49.665 80.0173 49.6542C80.8579 49.6542 81.7607 49.6542 82.6012 49.5815C83.0163 49.5815 83.4106 49.5815 83.7738 49.5089C85.2992 49.3324 86.2435 48.9171 87.8624 48.7822C88.2256 48.7822 88.5992 48.7303 88.9935 48.7199C90.0312 48.7199 91.2557 48.7199 92.3556 48.6368L92.2934 48.9379ZM94.8876 46.9343C85.9239 47.2111 76.9911 48.1235 68.1564 49.6646C60.7057 51.0246 54.7493 52.779 50.4532 54.9383C46.1571 57.0976 43.7496 59.4646 43.2723 62.0392C42.7949 64.6137 44.31 69.4411 48.0457 72.1921C51.7814 74.9432 57.3124 77.5385 64.566 79.9055C72.6282 82.4428 80.8606 84.4029 89.201 85.7709C98.9622 87.4294 108.802 88.5833 118.682 89.2279C129.013 89.9311 139.373 90.0939 149.72 89.7159C158.682 89.4458 167.614 88.5509 176.451 87.0375C183.902 85.6671 189.858 83.9231 194.154 81.7534C198.45 79.5837 203.255 77.1233 203.722 74.5487C204.189 71.9741 202.186 67.2091 196.562 64.4995C192.411 62.4959 187.295 59.1532 180.042 56.7862C171.979 54.2489 163.747 52.2888 155.406 50.9207C145.649 49.2622 135.812 48.1084 125.936 47.4638C115.602 46.7588 105.238 46.5994 94.8876 46.9862V46.9343Z" fill="#FFAD5C" stroke="#F78E48" stroke-width="0.52"/>
<g opacity="0.5" style="mix-blend-mode:darken">
<path d="M84.5209 63.9909C81.2418 64.1051 79.571 64.8837 80.7851 65.7246C81.9992 66.5654 85.6416 67.1676 88.9208 67.0534C92.1999 66.9392 93.8706 66.1606 92.6565 65.3093C91.4424 64.458 87.8 63.8767 84.5209 63.9909Z" fill="#E28959"/>
</g>
<g opacity="0.5" style="mix-blend-mode:darken">
<path d="M118.89 68.5067C115.195 68.6935 113.307 69.6071 114.677 70.531C116.046 71.455 120.156 72.0467 123.86 71.8598C127.565 71.673 129.443 70.8217 128.073 69.8459C126.704 68.87 122.594 68.3198 118.89 68.5067Z" fill="#E28959"/>
</g>
<g opacity="0.5" style="mix-blend-mode:darken">
<path d="M126.091 73.0433C123.663 73.1678 122.418 73.7697 123.321 74.3715C124.223 74.9734 126.921 75.4092 129.35 75.2536C131.778 75.0979 133.023 74.5376 132.12 73.9253C131.218 73.3131 128.52 72.8876 126.091 73.0433Z" fill="#E28959"/>
</g>
<g opacity="0.5" style="mix-blend-mode:darken">
<path d="M152.47 59.7862C150.031 59.9107 148.796 60.5022 149.689 61.1144C150.581 61.7267 153.29 62.1521 155.728 61.9965C158.167 61.8408 159.391 61.2701 158.488 60.6682C157.586 60.0663 154.888 59.6305 152.47 59.7862Z" fill="#E28959"/>
</g>
<g opacity="0.5" style="mix-blend-mode:darken">
<path d="M120.789 56.0906C118.36 56.2151 117.115 56.8066 118.018 57.4189C118.921 58.0311 121.619 58.4566 124.047 58.2905C126.475 58.1245 127.721 57.5745 126.818 56.9623C125.915 56.35 123.217 55.9246 120.789 56.0906Z" fill="#E28959"/>
</g>
<g opacity="0.5" style="mix-blend-mode:darken">
<path d="M122.096 78.919C120.228 79.1266 119.274 79.6351 120.021 80.0605C121.512 80.5656 123.104 80.7009 124.659 80.4549C126.527 80.2473 127.471 79.7388 126.735 79.3134C125.243 78.8083 123.652 78.6729 122.096 78.919Z" fill="#E28959"/>
</g>
<g opacity="0.5" style="mix-blend-mode:darken">
<path d="M101.498 79.2723C97.8035 79.4592 95.9149 80.3727 97.2847 81.2967C98.6544 82.2206 102.764 82.8227 106.468 82.6255C110.173 82.4282 112.051 81.5354 110.681 80.6115C109.312 79.6875 105.202 79.0854 101.498 79.2723Z" fill="#E28959"/>
</g>
<g opacity="0.5" style="mix-blend-mode:darken">
<path d="M102.307 59.3918C99.7233 59.5267 98.4053 60.1597 99.36 60.8031C100.315 61.4465 103.189 61.8408 105.783 61.7371C108.378 61.6333 109.685 60.9795 108.731 60.3258C107.776 59.672 104.891 59.2881 102.307 59.3918Z" fill="#E28959"/>
</g>
<g opacity="0.5" style="mix-blend-mode:darken">
<path d="M99.6611 63.8039C96.5479 64.0219 94.9499 65.0393 96.0914 66.0567C97.2328 67.074 100.668 67.7384 103.781 67.5204C106.894 67.3024 108.482 66.2851 107.34 65.2677C106.199 64.2503 102.764 63.5859 99.6611 63.8039Z" fill="#E28959"/>
</g>
<g opacity="0.5" style="mix-blend-mode:darken">
<path d="M110.816 73.4688C107.184 73.7283 105.316 74.9014 106.665 76.0953C108.014 77.2891 112.02 78.0573 115.652 77.7978C119.284 77.5383 121.131 76.3652 119.803 75.1713C118.475 73.9775 114.459 73.2196 110.837 73.4688H110.816Z" fill="#E28959"/>
</g>
<g opacity="0.5" style="mix-blend-mode:darken">
<path d="M86.2539 57.3468C83.1408 57.5648 81.5531 58.5718 82.6842 59.5996C83.8153 60.6274 87.2709 61.271 90.3736 61.053C93.4763 60.835 95.0744 59.828 93.9433 58.8002C92.8122 57.7725 89.3566 57.1288 86.2539 57.3468Z" fill="#E28959"/>
</g>
<g opacity="0.5" style="mix-blend-mode:darken">
<path d="M148.921 67.458C143.577 67.8732 140.837 69.6173 142.788 71.3718C144.739 73.1262 150.664 74.1955 156.008 73.7906C161.353 73.3858 164.092 71.6313 162.131 69.8872C160.17 68.1432 154.255 67.0531 148.921 67.458Z" fill="#E28959"/>
</g>
<g opacity="0.5" style="mix-blend-mode:darken">
<path d="M122.957 61.4992C119.73 61.738 118.07 62.8073 119.253 63.8558C120.436 64.9043 124.005 65.5687 127.233 65.3196C130.46 65.0704 132.11 64.0219 130.927 62.963C129.744 61.9041 126.174 61.2501 122.957 61.4992Z" fill="#E28959"/>
</g>
<g opacity="0.5" style="mix-blend-mode:darken">
<path d="M161.477 76.8117C158.25 77.0609 156.589 78.1198 157.772 79.1683C158.955 80.2168 162.535 80.8812 165.752 80.6424C168.969 80.4037 170.629 79.3344 169.457 78.2755C168.284 77.2166 164.694 76.5626 161.477 76.8117Z" fill="#E28959"/>
</g>
<g opacity="0.5" style="mix-blend-mode:darken">
<path d="M150.529 79.6457C147.302 79.8845 145.652 80.9538 146.835 82.0023C148.018 83.0508 151.588 83.7152 154.815 83.466C158.042 83.2169 159.692 82.1684 158.509 81.1095C157.326 80.0506 153.756 79.3966 150.529 79.6457Z" fill="#E28959"/>
</g>
<g opacity="0.5" style="mix-blend-mode:darken">
<path d="M73.3344 65.8593C70.0553 65.9735 68.3846 66.7521 69.5987 67.593C70.8129 68.4339 74.4552 69.0256 77.7344 68.9114C81.0135 68.7972 82.6842 68.0186 81.4701 67.1777C80.256 66.3369 76.6136 65.7451 73.3344 65.8593Z" fill="#E28959"/>
</g>
<g opacity="0.5" style="mix-blend-mode:darken">
<path d="M89.8755 72.9497C84.5936 73.1365 81.9059 74.3823 83.8568 75.7423C85.8077 77.1022 91.6811 78.0469 96.9526 77.8185C102.224 77.5901 104.922 76.3755 102.971 75.026C101.02 73.6764 95.147 72.7109 89.8755 72.9497Z" fill="#E28959"/>
</g>
<path fill-rule="evenodd" clip-rule="evenodd" d="M93.3414 113.707L0.114136 73.9879V53.6924L93.3414 92.3941V113.707Z" fill="#F5F4EE"/>
<path fill-rule="evenodd" clip-rule="evenodd" d="M93.2895 113.707L257.765 108.205V86.9438L93.2895 91.9373V113.707Z" fill="#CCC6C0"/>
<path fill-rule="evenodd" clip-rule="evenodd" d="M248.582 0.747314L253.303 17.4717L173.867 54.585L156.901 49.6227L248.582 0.747314Z" fill="#8E5326"/>
<path d="M251 85.8121L93.5489 91.0027L6.496 54.8548L157.887 49.6642L251 85.8121ZM157.887 49.6642L251 85.8121L157.887 49.6642ZM158.115 48.2834L0.114136 53.6714L93.2687 92.3938L257.734 86.9644L158.115 48.3042V48.2834Z" fill="#FFD9B0"/>
<path fill-rule="evenodd" clip-rule="evenodd" d="M96.2781 20.8043L255.742 14.8143L255.628 12.1047L249.848 1.52612L92.1273 6.65451L90.083 5.2115L89.4708 6.73756L96.2781 20.8043Z" fill="#D8A37C"/>
<g opacity="0.5" style="mix-blend-mode:multiply">
<path d="M230.297 76.3341L189.827 60.6271L187.129 59.2671C184.799 58.1574 182.4 57.1969 179.948 56.3915L178.412 55.9036L175.424 55.0315L169.467 52.6957L158.053 48.3044L142.3 48.211C137.267 47.5881 131.633 47.069 125.572 46.6642C119.014 46.2281 112.352 45.9998 105.763 45.9998C101.996 45.9998 98.1978 46.0724 94.4725 46.2178C85.4841 46.5002 76.5271 47.4196 67.6686 48.9688C64.7319 49.5087 61.0792 50.3599 58.1217 51.1801L15.441 52.7165L10.3251 57.9072L14.6109 58.8103L38.3639 68.0809H38.5299C39.1629 66.9805 41.1346 63.9906 42.5666 63.3055H42.8156C44.3444 63.3848 45.8683 63.5407 47.3815 63.7726L50.1522 64.2398C50.5361 64.3955 51.0965 64.6447 51.6257 64.8938C52.3467 65.2614 53.1006 65.5603 53.8775 65.7866C74.3929 68.8387 120.291 76.033 120.706 76.1057L190.979 75.4101L198.087 75.3375H198.17C198.834 75.0872 199.536 74.9504 200.246 74.9326C200.661 74.9112 201.073 75.0046 201.439 75.2025C202.186 75.6697 203.691 81.8881 204.656 87.3695L215.635 86.9853L227.485 76.822L230.297 76.3341Z" fill="#8E5326"/>
</g>
<path fill-rule="evenodd" clip-rule="evenodd" d="M91.7019 5.82397L94.5763 23.1193L18.8758 59.6098L14.2684 59.3502L1.68109 54.3672L91.7019 5.82397Z" fill="#D8A37C"/>
<path fill-rule="evenodd" clip-rule="evenodd" d="M90.0208 5.21167L92.8952 22.507L16.0118 60.129L0 53.7549L90.0208 5.21167Z" fill="#F5F4EE"/>
<path fill-rule="evenodd" clip-rule="evenodd" d="M96.9007 19.2782L257.278 13.61L250.46 0L90.083 5.21144L96.9007 19.2782Z" fill="#E6E4DA"/>
<path fill-rule="evenodd" clip-rule="evenodd" d="M185.905 2.57446C185.928 4.71823 185.113 6.78623 183.634 8.33765C182.155 9.88906 180.129 10.8012 177.987 10.8795C176.945 10.8823 175.913 10.679 174.95 10.2814C173.987 9.88377 173.112 9.29966 172.375 8.56262C171.638 7.82558 171.054 6.95014 170.657 5.98663C170.259 5.02311 170.056 3.99052 170.059 2.94819L185.905 2.57446Z" fill="#CC8B5A"/>
<path fill-rule="evenodd" clip-rule="evenodd" d="M185.956 3.75799C186.932 5.05566 187.513 4.95184 187.472 5.83426C187.387 6.57364 187.248 7.30579 187.056 8.02472C186.589 9.12515 185.469 9.94527 183.248 10.101C180.768 10.235 178.291 9.77995 176.021 8.77316C173.75 7.76637 171.75 6.23636 170.183 4.3082L170.059 2.94824L185.956 3.75799Z" fill="#E89C69"/>
<path fill-rule="evenodd" clip-rule="evenodd" d="M185.905 2.29419C188.613 5.9069 187.638 8.36728 183.196 8.6891C180.676 8.79413 178.167 8.31027 175.867 7.27591C173.566 6.24155 171.539 4.68516 169.945 2.7302L185.905 2.29419Z" fill="#F9F7ED"/>
<defs>
<linearGradient id="paint0_linear_228_15272" x1="124.101" y1="27.9843" x2="122.779" y2="98.7521" gradientUnits="userSpaceOnUse">
<stop stop-color="#FFD561"/>
<stop offset="0.77" stop-color="#FFBC46"/>
<stop offset="1" stop-color="#FFB43D"/>
</linearGradient>
</defs>
</svg>
